<svg width="2180" height="56" viewBox="0 0 2180 56" fill="none" xmlns="http://www.w3.org/2000/svg">
<path fill-rule="evenodd" clip-rule="evenodd" d="M1090 56H2180V0H1090V56Z" fill="url(#paint0_linear_2116_4425)"/>
<path d="M1130 33.8006V22.1994H1138.49V24.1939H1132.42V26.8033H1136.44V28.7978H1132.42V31.8061H1138.56V33.8006H1130Z" fill="white"/>
<path d="M1145.4 34C1144.36 34 1143.47 33.7507 1142.71 33.2521C1141.96 32.7535 1141.38 32.0554 1140.97 31.1579C1140.56 30.2493 1140.36 29.1967 1140.36 28C1140.36 26.7812 1140.57 25.723 1140.99 24.8255C1141.41 23.928 1142 23.2355 1142.76 22.7479C1143.54 22.2493 1144.45 22 1145.48 22C1146.3 22 1147.06 22.1607 1147.74 22.482C1148.43 22.8033 1148.99 23.2687 1149.42 23.8781C1149.86 24.4765 1150.11 25.2022 1150.16 26.0554H1147.53C1147.46 25.4349 1147.25 24.9363 1146.89 24.5596C1146.54 24.1828 1146.07 23.9945 1145.48 23.9945C1144.98 23.9945 1144.52 24.1496 1144.12 24.4598C1143.73 24.7701 1143.41 25.2244 1143.18 25.8227C1142.96 26.4211 1142.85 27.1468 1142.85 28C1142.85 28.8532 1142.96 29.5789 1143.18 30.1773C1143.4 30.7756 1143.7 31.2299 1144.09 31.5402C1144.48 31.8504 1144.92 32.0055 1145.4 32.0055C1145.81 32.0055 1146.17 31.9224 1146.48 31.7562C1146.79 31.5789 1147.04 31.3296 1147.23 31.0083C1147.43 30.687 1147.55 30.3047 1147.59 29.8615H1150.23C1150.14 30.7036 1149.89 31.4349 1149.48 32.0554C1149.07 32.6759 1148.53 33.1579 1147.84 33.5014C1147.15 33.8338 1146.34 34 1145.4 34Z" fill="white"/>
<path d="M1156.39 34C1155.38 34 1154.5 33.7562 1153.74 33.2687C1152.98 32.7812 1152.4 32.0886 1151.98 31.1911C1151.57 30.2936 1151.36 29.2299 1151.36 28C1151.36 26.759 1151.57 25.6898 1151.98 24.7922C1152.4 23.8947 1152.98 23.2078 1153.74 22.7313C1154.5 22.2438 1155.38 22 1156.39 22C1157.4 22 1158.28 22.2438 1159.03 22.7313C1159.78 23.2078 1160.37 23.8947 1160.79 24.7922C1161.21 25.6787 1161.42 26.7479 1161.42 28C1161.42 29.2299 1161.21 30.2936 1160.79 31.1911C1160.37 32.0886 1159.78 32.7812 1159.03 33.2687C1158.28 33.7562 1157.4 34 1156.39 34ZM1156.39 32.0055C1156.88 32.0055 1157.31 31.8504 1157.68 31.5402C1158.07 31.2188 1158.37 30.759 1158.58 30.1607C1158.8 29.5623 1158.91 28.8421 1158.91 28C1158.91 27.1468 1158.8 26.4266 1158.58 25.8393C1158.37 25.241 1158.07 24.7867 1157.68 24.4765C1157.31 24.1551 1156.88 23.9945 1156.39 23.9945C1155.9 23.9945 1155.47 24.1551 1155.08 24.4765C1154.69 24.7867 1154.39 25.241 1154.17 25.8393C1153.96 26.4377 1153.85 27.1579 1153.85 28C1153.85 28.8421 1153.96 29.5623 1154.17 30.1607C1154.39 30.759 1154.69 31.2188 1155.08 31.5402C1155.47 31.8504 1155.9 32.0055 1156.39 32.0055Z" fill="white"/>
<path d="M1167.6 34C1166.67 34 1165.86 33.8227 1165.19 33.4681C1164.52 33.1136 1164 32.6094 1163.63 31.9557C1163.27 31.3019 1163.08 30.5208 1163.08 29.6122H1165.46C1165.46 30.3878 1165.64 30.9806 1166 31.3906C1166.37 31.8006 1166.9 32.0055 1167.6 32.0055C1168.16 32.0055 1168.61 31.8781 1168.94 31.6233C1169.28 31.3684 1169.45 31.0139 1169.45 30.5596C1169.45 30.2271 1169.34 29.9612 1169.12 29.7618C1168.9 29.5623 1168.6 29.4017 1168.23 29.2798C1167.86 29.1468 1167.46 29.0249 1167.01 28.9141C1166.58 28.8033 1166.15 28.6704 1165.7 28.5152C1165.26 28.3601 1164.85 28.1607 1164.48 27.9169C1164.11 27.6731 1163.82 27.3518 1163.6 26.9529C1163.38 26.5429 1163.27 26.0277 1163.27 25.4072C1163.27 24.7645 1163.44 24.1884 1163.78 23.6787C1164.13 23.1579 1164.63 22.7479 1165.26 22.4488C1165.89 22.1496 1166.63 22 1167.48 22C1168.26 22 1168.98 22.1496 1169.64 22.4488C1170.3 22.7479 1170.84 23.1801 1171.25 23.7452C1171.65 24.3102 1171.87 24.9972 1171.89 25.8061H1169.47C1169.46 25.4072 1169.35 25.0748 1169.15 24.8089C1168.97 24.5429 1168.72 24.3435 1168.42 24.2105C1168.14 24.0665 1167.82 23.9945 1167.48 23.9945C1166.98 23.9945 1166.57 24.1108 1166.24 24.3435C1165.91 24.5762 1165.75 24.9086 1165.75 25.3407C1165.75 25.651 1165.86 25.9003 1166.09 26.0886C1166.31 26.277 1166.6 26.4321 1166.96 26.554C1167.34 26.6648 1167.75 26.7756 1168.19 26.8864C1168.64 26.9862 1169.07 27.1136 1169.5 27.2687C1169.95 27.4127 1170.35 27.6177 1170.71 27.8837C1171.09 28.1385 1171.39 28.482 1171.61 28.9141C1171.84 29.3352 1171.96 29.8781 1171.96 30.5429C1171.96 31.2299 1171.77 31.8338 1171.39 32.3546C1171.02 32.8643 1170.5 33.2687 1169.84 33.5679C1169.18 33.856 1168.44 34 1167.6 34Z" fill="white"/>
<path d="M1177.37 33.8006V29.1136L1173.66 22.1994L1176.26 22.1994L1177.67 24.8089L1178.62 27.0859L1179.6 24.7922L1181.01 22.1994H1183.58L1179.78 29.1136V33.8006H1177.37Z" fill="white"/>
<path d="M1189.84 34C1188.91 34 1188.11 33.8227 1187.43 33.4681C1186.76 33.1136 1186.24 32.6094 1185.87 31.9557C1185.51 31.3019 1185.33 30.5208 1185.33 29.6122H1187.7C1187.7 30.3878 1187.88 30.9806 1188.25 31.3906C1188.61 31.8006 1189.14 32.0055 1189.84 32.0055C1190.4 32.0055 1190.85 31.8781 1191.18 31.6233C1191.53 31.3684 1191.7 31.0139 1191.7 30.5596C1191.7 30.2271 1191.59 29.9612 1191.36 29.7618C1191.14 29.5623 1190.85 29.4017 1190.47 29.2798C1190.1 29.1468 1189.7 29.0249 1189.26 28.9141C1188.83 28.8033 1188.39 28.6704 1187.95 28.5152C1187.51 28.3601 1187.1 28.1607 1186.72 27.9169C1186.35 27.6731 1186.06 27.3518 1185.84 26.9529C1185.62 26.5429 1185.51 26.0277 1185.51 25.4072C1185.51 24.7645 1185.68 24.1884 1186.02 23.6787C1186.38 23.1579 1186.87 22.7479 1187.5 22.4488C1188.13 22.1496 1188.87 22 1189.72 22C1190.51 22 1191.23 22.1496 1191.88 22.4488C1192.54 22.7479 1193.08 23.1801 1193.49 23.7452C1193.9 24.3102 1194.11 24.9972 1194.14 25.8061L1191.71 25.8061C1191.7 25.4072 1191.6 25.0748 1191.4 24.8089C1191.21 24.5429 1190.97 24.3435 1190.67 24.2105C1190.38 24.0665 1190.07 23.9945 1189.72 23.9945C1189.22 23.9945 1188.81 24.1108 1188.48 24.3435C1188.16 24.5762 1188 24.9086 1188 25.3407C1188 25.651 1188.11 25.9003 1188.33 26.0886C1188.55 26.277 1188.84 26.4321 1189.21 26.554C1189.58 26.6648 1189.99 26.7756 1190.44 26.8864C1190.88 26.9862 1191.32 27.1136 1191.75 27.2687C1192.19 27.4127 1192.59 27.6177 1192.96 27.8837C1193.33 28.1385 1193.63 28.482 1193.85 28.9141C1194.09 29.3352 1194.2 29.8781 1194.2 30.5429C1194.2 31.2299 1194.01 31.8338 1193.64 32.3546C1193.26 32.8643 1192.74 33.2687 1192.08 33.5679C1191.43 33.856 1190.68 34 1189.84 34Z" fill="white"/>
<path d="M1199.65 33.8006V24.1939H1196.15V22.1994H1205.56V24.1939H1202.06V33.8006H1199.65Z" fill="white"/>
<path d="M1207.85 33.8006V22.1994L1216.35 22.1994V24.1939L1210.27 24.1939V26.8033H1214.29V28.7978H1210.27V31.8061H1216.41V33.8006H1207.85Z" fill="white"/>
<path d="M1218.03 33.8006L1218.84 22.1994H1221.84L1222.84 27.9003L1223.15 30.3435L1223.47 27.9003L1224.45 22.1994H1227.38L1228.21 33.8006L1225.86 33.8006L1225.68 27.7008L1225.64 24.6593L1225.16 27.7008L1224.05 33.8006H1222.14L1221.01 27.7008L1220.55 24.626L1220.52 27.7008L1220.32 33.8006H1218.03Z" fill="white"/>
<path d="M1244.14 33.8006V24.1939H1240.64V22.1994L1250.04 22.1994V24.1939L1246.54 24.1939V33.8006H1244.14Z" fill="white"/>
<path d="M1256.49 34C1255.48 34 1254.59 33.7562 1253.83 33.2687C1253.08 32.7812 1252.49 32.0886 1252.07 31.1911C1251.66 30.2936 1251.46 29.2299 1251.46 28C1251.46 26.759 1251.66 25.6898 1252.07 24.7922C1252.49 23.8947 1253.08 23.2078 1253.83 22.7313C1254.59 22.2438 1255.48 22 1256.49 22C1257.49 22 1258.37 22.2438 1259.12 22.7313C1259.88 23.2078 1260.46 23.8947 1260.88 24.7922C1261.3 25.6787 1261.51 26.7479 1261.51 28C1261.51 29.2299 1261.3 30.2936 1260.88 31.1911C1260.46 32.0886 1259.88 32.7812 1259.12 33.2687C1258.37 33.7562 1257.49 34 1256.49 34ZM1256.49 32.0055C1256.97 32.0055 1257.4 31.8504 1257.78 31.5402C1258.17 31.2188 1258.47 30.759 1258.68 30.1607C1258.9 29.5623 1259.01 28.8421 1259.01 28C1259.01 27.1468 1258.9 26.4266 1258.68 25.8393C1258.47 25.241 1258.17 24.7867 1257.78 24.4765C1257.4 24.1551 1256.97 23.9945 1256.49 23.9945C1256 23.9945 1255.56 24.1551 1255.18 24.4765C1254.79 24.7867 1254.48 25.241 1254.26 25.8393C1254.05 26.4377 1253.95 27.1579 1253.95 28C1253.95 28.8421 1254.05 29.5623 1254.26 30.1607C1254.48 30.759 1254.79 31.2188 1255.18 31.5402C1255.56 31.8504 1256 32.0055 1256.49 32.0055Z" fill="white"/>
<path d="M1267.61 34C1266.6 34 1265.72 33.7562 1264.95 33.2687C1264.2 32.7812 1263.61 32.0886 1263.19 31.1911C1262.79 30.2936 1262.58 29.2299 1262.58 28C1262.58 26.759 1262.79 25.6898 1263.19 24.7922C1263.61 23.8947 1264.2 23.2078 1264.95 22.7313C1265.72 22.2438 1266.6 22 1267.61 22C1268.61 22 1269.49 22.2438 1270.25 22.7313C1271 23.2078 1271.58 23.8947 1272 24.7922C1272.42 25.6787 1272.63 26.7479 1272.63 28C1272.63 29.2299 1272.42 30.2936 1272 31.1911C1271.58 32.0886 1271 32.7812 1270.25 33.2687C1269.49 33.7562 1268.61 34 1267.61 34ZM1267.61 32.0055C1268.09 32.0055 1268.53 31.8504 1268.9 31.5402C1269.29 31.2188 1269.59 30.759 1269.8 30.1607C1270.02 29.5623 1270.13 28.8421 1270.13 28C1270.13 27.1468 1270.02 26.4266 1269.8 25.8393C1269.59 25.241 1269.29 24.7867 1268.9 24.4765C1268.53 24.1551 1268.09 23.9945 1267.61 23.9945C1267.12 23.9945 1266.68 24.1551 1266.3 24.4765C1265.91 24.7867 1265.61 25.241 1265.38 25.8393C1265.17 26.4377 1265.07 27.1579 1265.07 28C1265.07 28.8421 1265.17 29.5623 1265.38 30.1607C1265.61 30.759 1265.91 31.2188 1266.3 31.5402C1266.68 31.8504 1267.12 32.0055 1267.61 32.0055Z" fill="white"/>
<path d="M1274.85 33.8006V22.1994H1277.25V31.8061H1283.03V33.8006H1274.85Z" fill="white"/>
<path d="M1289.93 34C1289 34 1288.2 33.8227 1287.53 33.4681C1286.85 33.1136 1286.33 32.6094 1285.97 31.9557C1285.6 31.3019 1285.42 30.5208 1285.42 29.6122L1287.79 29.6122C1287.79 30.3878 1287.98 30.9806 1288.34 31.3906C1288.71 31.8006 1289.24 32.0055 1289.93 32.0055C1290.5 32.0055 1290.95 31.8781 1291.28 31.6233C1291.62 31.3684 1291.79 31.0139 1291.79 30.5596C1291.79 30.2271 1291.68 29.9612 1291.46 29.7618C1291.24 29.5623 1290.94 29.4017 1290.56 29.2798C1290.2 29.1468 1289.8 29.0249 1289.35 28.9141C1288.92 28.8033 1288.48 28.6704 1288.04 28.5152C1287.6 28.3601 1287.19 28.1607 1286.81 27.9169C1286.45 27.6731 1286.16 27.3518 1285.94 26.9529C1285.71 26.5429 1285.6 26.0277 1285.6 25.4072C1285.6 24.7645 1285.78 24.1884 1286.12 23.6787C1286.47 23.1579 1286.96 22.7479 1287.59 22.4488C1288.22 22.1496 1288.97 22 1289.82 22C1290.6 22 1291.32 22.1496 1291.97 22.4488C1292.64 22.7479 1293.17 23.1801 1293.58 23.7452C1293.99 24.3102 1294.21 24.9972 1294.23 25.8061H1291.81C1291.8 25.4072 1291.69 25.0748 1291.49 24.8089C1291.31 24.5429 1291.06 24.3435 1290.76 24.2105C1290.48 24.0665 1290.16 23.9945 1289.82 23.9945C1289.32 23.9945 1288.91 24.1108 1288.57 24.3435C1288.25 24.5762 1288.09 24.9086 1288.09 25.3407C1288.09 25.651 1288.2 25.9003 1288.42 26.0886C1288.65 26.277 1288.94 26.4321 1289.3 26.554C1289.68 26.6648 1290.09 26.7756 1290.53 26.8864C1290.97 26.9862 1291.41 27.1136 1291.84 27.2687C1292.28 27.4127 1292.69 27.6177 1293.05 27.8837C1293.43 28.1385 1293.73 28.482 1293.95 28.9141C1294.18 29.3352 1294.3 29.8781 1294.3 30.5429C1294.3 31.2299 1294.11 31.8338 1293.73 32.3546C1293.36 32.8643 1292.84 33.2687 1292.17 33.5679C1291.52 33.856 1290.77 34 1289.93 34Z" fill="white"/>
<path d="M1308.88 31.3407V29.3463H1315.56V31.3407H1308.88ZM1310.29 22.1994H1313.85L1317 33.8006H1314.55L1312.76 26.8532L1312.06 23.9446L1311.36 26.8532L1309.54 33.8006H1307.15L1310.29 22.1994Z" fill="white"/>
<path d="M1318.74 33.8006V22.1994H1321.79L1325.55 30.7756L1325.39 26.7701V22.1994H1327.68V33.8006L1324.63 33.8006L1320.83 25.3573L1321.03 29.2299V33.8006H1318.74Z" fill="white"/>
<path d="M1329.91 33.8006V22.1994H1333.69C1334.55 22.1994 1335.33 22.338 1336.01 22.615C1336.7 22.8809 1337.28 23.2687 1337.77 23.7784C1338.26 24.277 1338.63 24.8809 1338.88 25.59C1339.14 26.2992 1339.26 27.0914 1339.26 27.9668C1339.26 28.8532 1339.14 29.6565 1338.88 30.3767C1338.63 31.0859 1338.26 31.7008 1337.77 32.2216C1337.28 32.7313 1336.7 33.1247 1336.01 33.4017C1335.33 33.6676 1334.55 33.8006 1333.69 33.8006H1329.91ZM1332.31 31.8061H1333.69C1334.34 31.8061 1334.9 31.651 1335.35 31.3407C1335.81 31.0194 1336.16 30.5706 1336.39 29.9945C1336.64 29.4072 1336.76 28.7313 1336.76 27.9668C1336.76 27.1911 1336.64 26.5263 1336.39 25.9723C1336.16 25.4072 1335.81 24.9695 1335.35 24.6593C1334.9 24.349 1334.34 24.1939 1333.69 24.1939H1332.31V31.8061Z" fill="white"/>
<path d="M1352.7 33.8006V22.1994H1355.1V31.8061H1360.88V33.8006H1352.7Z" fill="white"/>
<path d="M1366.47 33.8006V22.1994H1368.88V33.8006H1366.47ZM1363.74 22.1994H1371.62V24.1939H1363.74V22.1994ZM1363.74 31.8061H1371.62V33.8006H1363.74V31.8061Z" fill="white"/>
<path d="M1381.43 27.7341C1381.86 27.8781 1382.22 28.072 1382.52 28.3158C1382.83 28.5596 1383.07 28.8643 1383.22 29.2299C1383.39 29.5845 1383.47 29.9945 1383.47 30.4598C1383.47 31.1357 1383.3 31.7285 1382.95 32.2382C1382.61 32.7368 1382.13 33.1247 1381.49 33.4017C1380.88 33.6676 1380.14 33.8006 1379.29 33.8006H1374.59V22.1994L1379.12 22.1994C1380.42 22.1994 1381.42 22.4765 1382.13 23.0305C1382.84 23.5734 1383.2 24.2881 1383.2 25.1745C1383.2 25.5845 1383.13 25.9557 1382.99 26.2881C1382.84 26.6094 1382.64 26.892 1382.37 27.1357C1382.11 27.3795 1381.79 27.5789 1381.43 27.7341ZM1378.99 24.1939H1377V26.9363H1378.99C1379.51 26.9363 1379.92 26.8089 1380.23 26.554C1380.55 26.2881 1380.72 25.9501 1380.72 25.5402C1380.72 25.1302 1380.55 24.8033 1380.23 24.5596C1379.91 24.3158 1379.5 24.1939 1378.99 24.1939ZM1377 31.8061H1379.22C1379.75 31.8061 1380.18 31.6787 1380.5 31.4238C1380.82 31.1579 1380.98 30.8089 1380.98 30.3767C1380.98 29.9224 1380.82 29.5679 1380.5 29.313C1380.18 29.0582 1379.73 28.9307 1379.16 28.9307H1377V31.8061Z" fill="white"/>
<path d="M1387.42 29.2964V27.3019H1390.14C1390.53 27.3019 1390.87 27.2355 1391.16 27.1025C1391.44 26.9584 1391.67 26.7645 1391.84 26.5208C1392 26.277 1392.09 25.9945 1392.09 25.6731C1392.09 25.374 1392.01 25.1136 1391.85 24.892C1391.71 24.6704 1391.51 24.4986 1391.26 24.3767C1391 24.2548 1390.71 24.1939 1390.39 24.1939H1387.42V22.1994H1390.39C1391.2 22.1994 1391.92 22.338 1392.55 22.615C1393.18 22.892 1393.67 23.2909 1394.03 23.8116C1394.39 24.3213 1394.57 24.9418 1394.57 25.6731C1394.57 26.1274 1394.47 26.5706 1394.26 27.0028C1394.05 27.4238 1393.74 27.8116 1393.35 28.1662C1392.95 28.5097 1392.47 28.7867 1391.9 28.9972C1391.35 29.1967 1390.72 29.2964 1390.01 29.2964H1387.42ZM1385.7 33.8006V22.1994H1388.1V33.8006H1385.7ZM1392.12 33.8006C1392.1 33.3019 1391.99 32.8033 1391.79 32.3047C1391.6 31.795 1391.33 31.3075 1390.99 30.8421C1390.65 30.3767 1390.22 29.9557 1389.7 29.5789C1389.19 29.1911 1388.6 28.8643 1387.94 28.5983L1390.61 28.0499C1391.28 28.3823 1391.86 28.7756 1392.35 29.2299C1392.85 29.6731 1393.26 30.1496 1393.58 30.6593C1393.91 31.1579 1394.15 31.6787 1394.31 32.2216C1394.47 32.7535 1394.57 33.2798 1394.59 33.8006H1392.12Z" fill="white"/>
<path d="M1397.85 31.3407V29.3463H1404.53V31.3407L1397.85 31.3407ZM1399.26 22.1994H1402.83L1405.98 33.8006H1403.52L1401.73 26.8532L1401.03 23.9446L1400.34 26.8532L1398.51 33.8006H1396.12L1399.26 22.1994Z" fill="white"/>
<path d="M1409.67 29.2964V27.3019L1412.39 27.3019C1412.78 27.3019 1413.11 27.2355 1413.4 27.1025C1413.69 26.9584 1413.91 26.7645 1414.08 26.5208C1414.25 26.277 1414.33 25.9945 1414.33 25.6731C1414.33 25.374 1414.25 25.1136 1414.1 24.892C1413.95 24.6704 1413.75 24.4986 1413.5 24.3767C1413.25 24.2548 1412.96 24.1939 1412.64 24.1939L1409.67 24.1939V22.1994H1412.64C1413.44 22.1994 1414.16 22.338 1414.79 22.615C1415.42 22.892 1415.92 23.2909 1416.27 23.8116C1416.64 24.3213 1416.82 24.9418 1416.82 25.6731C1416.82 26.1274 1416.71 26.5706 1416.5 27.0028C1416.29 27.4238 1415.99 27.8116 1415.59 28.1662C1415.19 28.5097 1414.71 28.7867 1414.15 28.9972C1413.59 29.1967 1412.96 29.2964 1412.26 29.2964L1409.67 29.2964ZM1407.94 33.8006V22.1994H1410.35V33.8006H1407.94ZM1414.36 33.8006C1414.34 33.3019 1414.23 32.8033 1414.03 32.3047C1413.84 31.795 1413.58 31.3075 1413.23 30.8421C1412.89 30.3767 1412.46 29.9557 1411.94 29.5789C1411.43 29.1911 1410.85 28.8643 1410.18 28.5983L1412.85 28.0499C1413.53 28.3823 1414.11 28.7756 1414.59 29.2299C1415.09 29.6731 1415.5 30.1496 1415.82 30.6593C1416.15 31.1579 1416.4 31.6787 1416.55 32.2216C1416.72 32.7535 1416.81 33.2798 1416.83 33.8006H1414.36Z" fill="white"/>
<path d="M1422.08 33.8006V22.1994H1424.49V33.8006H1422.08ZM1419.35 22.1994H1427.23V24.1939H1419.35V22.1994ZM1419.35 31.8061H1427.23V33.8006H1419.35V31.8061Z" fill="white"/>
<path d="M1430.28 33.8006V22.1994L1438.78 22.1994V24.1939L1432.71 24.1939V26.8033L1436.72 26.8033V28.7978L1432.71 28.7978V31.8061L1438.85 31.8061V33.8006H1430.28Z" fill="white"/>
<path d="M1445.64 34C1444.71 34 1443.91 33.8227 1443.23 33.4681C1442.56 33.1136 1442.04 32.6094 1441.67 31.9557C1441.31 31.3019 1441.12 30.5208 1441.12 29.6122H1443.5C1443.5 30.3878 1443.68 30.9806 1444.04 31.3906C1444.41 31.8006 1444.94 32.0055 1445.64 32.0055C1446.2 32.0055 1446.65 31.8781 1446.98 31.6233C1447.32 31.3684 1447.49 31.0139 1447.49 30.5596C1447.49 30.2271 1447.38 29.9612 1447.16 29.7618C1446.94 29.5623 1446.64 29.4017 1446.27 29.2798C1445.9 29.1468 1445.5 29.0249 1445.06 28.9141C1444.62 28.8033 1444.19 28.6704 1443.75 28.5152C1443.3 28.3601 1442.89 28.1607 1442.52 27.9169C1442.15 27.6731 1441.86 27.3518 1441.64 26.9529C1441.42 26.5429 1441.31 26.0277 1441.31 25.4072C1441.31 24.7645 1441.48 24.1884 1441.82 23.6787C1442.18 23.1579 1442.67 22.7479 1443.3 22.4488C1443.93 22.1496 1444.67 22 1445.52 22C1446.31 22 1447.02 22.1496 1447.68 22.4488C1448.34 22.7479 1448.88 23.1801 1449.29 23.7452C1449.7 24.3102 1449.91 24.9972 1449.93 25.8061L1447.51 25.8061C1447.5 25.4072 1447.4 25.0748 1447.2 24.8089C1447.01 24.5429 1446.76 24.3435 1446.47 24.2105C1446.18 24.0665 1445.86 23.9945 1445.52 23.9945C1445.02 23.9945 1444.61 24.1108 1444.28 24.3435C1443.96 24.5762 1443.8 24.9086 1443.8 25.3407C1443.8 25.651 1443.91 25.9003 1444.13 26.0886C1444.35 26.277 1444.64 26.4321 1445.01 26.554C1445.38 26.6648 1445.79 26.7756 1446.23 26.8864C1446.68 26.9862 1447.11 27.1136 1447.54 27.2687C1447.99 27.4127 1448.39 27.6177 1448.76 27.8837C1449.13 28.1385 1449.43 28.482 1449.65 28.9141C1449.88 29.3352 1450 29.8781 1450 30.5429C1450 31.2299 1449.81 31.8338 1449.44 32.3546C1449.06 32.8643 1448.54 33.2687 1447.88 33.5679C1447.22 33.856 1446.48 34 1445.64 34Z" fill="white"/>
<path d="M1496.92 12.4866L1494.76 46.9303L1807.13 46.5122L1808.69 9.17969L1496.92 12.4866Z" fill="url(#paint1_radial_2116_4425)" stroke="black"/>
<path fill-rule="evenodd" clip-rule="evenodd" d="M1815 4L1490 4V52L1815 52V4ZM1582.78 33.4681C1583.46 33.8227 1584.26 34 1585.19 34C1586.03 34 1586.78 33.856 1587.44 33.5679C1588.1 33.2687 1588.62 32.8643 1589 32.3546C1589.37 31.8338 1589.56 31.2299 1589.56 30.5429C1589.56 29.8781 1589.45 29.3352 1589.21 28.9141C1588.99 28.482 1588.69 28.1385 1588.32 27.8837C1587.95 27.6177 1587.55 27.4127 1587.1 27.2687C1586.67 27.1136 1586.23 26.9862 1585.79 26.8864C1585.35 26.7756 1584.94 26.6648 1584.56 26.554C1584.19 26.4321 1583.9 26.277 1583.68 26.0886C1583.46 25.9003 1583.35 25.651 1583.35 25.3407C1583.35 24.9086 1583.51 24.5762 1583.83 24.3435C1584.16 24.1108 1584.58 23.9945 1585.07 23.9945C1585.42 23.9945 1585.73 24.0665 1586.02 24.2105C1586.32 24.3435 1586.57 24.5429 1586.75 24.8089C1586.95 25.0748 1587.06 25.4072 1587.07 25.8061H1589.5C1589.47 24.9972 1589.26 24.3102 1588.85 23.7452C1588.44 23.1801 1587.9 22.7479 1587.24 22.4488C1586.58 22.1496 1585.86 22 1585.07 22C1584.22 22 1583.48 22.1496 1582.85 22.4488C1582.22 22.7479 1581.72 23.1579 1581.37 23.6787C1581.03 24.1884 1580.85 24.7645 1580.85 25.4072C1580.85 26.0277 1580.96 26.5429 1581.19 26.9529C1581.41 27.3518 1581.7 27.6731 1582.07 27.9169C1582.44 28.1607 1582.85 28.3601 1583.3 28.5152C1583.74 28.6704 1584.18 28.8033 1584.61 28.9141C1585.05 29.0249 1585.46 29.1468 1585.82 29.2798C1586.2 29.4017 1586.5 29.5623 1586.72 29.7618C1586.94 29.9612 1587.05 30.2271 1587.05 30.5596C1587.05 31.0139 1586.88 31.3684 1586.54 31.6233C1586.21 31.8781 1585.76 32.0055 1585.19 32.0055C1584.49 32.0055 1583.96 31.8006 1583.6 31.3906C1583.23 30.9806 1583.05 30.3878 1583.05 29.6122H1580.67C1580.67 30.5208 1580.85 31.3019 1581.22 31.9557C1581.58 32.6094 1582.11 33.1136 1582.78 33.4681ZM1516.41 29.2964V33.8006H1514V22.1994H1515.73H1516.41L1518.7 22.1994C1519.51 22.1994 1520.23 22.3379 1520.86 22.615C1521.5 22.892 1521.99 23.2909 1522.34 23.8116C1522.71 24.3213 1522.89 24.9418 1522.89 25.6731C1522.89 26.1274 1522.79 26.5706 1522.58 27.0028C1522.37 27.4238 1522.06 27.8116 1521.66 28.1662C1521.29 28.484 1520.85 28.7449 1520.34 28.9488C1520.45 29.0398 1520.56 29.1335 1520.66 29.2299C1521.16 29.6731 1521.57 30.1496 1521.89 30.6593C1522.23 31.1579 1522.47 31.6787 1522.63 32.2216C1522.79 32.7535 1522.89 33.2798 1522.91 33.8006H1520.43C1520.41 33.3019 1520.3 32.8033 1520.1 32.3047C1519.91 31.795 1519.65 31.3075 1519.3 30.8421C1518.96 30.3767 1518.53 29.9557 1518.01 29.5789C1517.88 29.4809 1517.74 29.3867 1517.6 29.2964L1516.41 29.2964ZM1516.41 27.3019L1518.45 27.3019C1518.84 27.3019 1519.18 27.2355 1519.47 27.1025C1519.76 26.9585 1519.98 26.7645 1520.15 26.5208C1520.32 26.277 1520.4 25.9945 1520.4 25.6731C1520.4 25.374 1520.32 25.1136 1520.17 24.892C1520.02 24.6704 1519.82 24.4986 1519.57 24.3767C1519.31 24.2548 1519.02 24.1939 1518.7 24.1939L1516.41 24.1939V27.3019ZM1525.24 22.1994V33.8006H1533.82V31.8061H1527.67V28.7978H1531.69V26.8033H1527.67V24.1939H1533.75V22.1994H1525.24ZM1537.98 33.8006L1538.63 31.3407H1542.36L1543 33.8006H1545.46L1542.3 22.1994H1538.73L1535.59 33.8006L1537.98 33.8006ZM1541.85 29.3463H1539.15L1539.81 26.8532L1540.51 23.9446L1541.2 26.8532L1541.85 29.3463ZM1547.24 22.1994V33.8006H1551.03C1551.9 33.8006 1552.67 33.6676 1553.36 33.4017C1554.05 33.1247 1554.63 32.7313 1555.12 32.2216C1555.61 31.7008 1555.98 31.0859 1556.24 30.3767C1556.49 29.6565 1556.62 28.8532 1556.62 27.9668C1556.62 27.0914 1556.49 26.2992 1556.24 25.59C1555.98 24.8809 1555.61 24.277 1555.12 23.7784C1554.63 23.2687 1554.05 22.8809 1553.36 22.615C1552.67 22.3379 1551.9 22.1994 1551.03 22.1994H1547.24ZM1551.03 31.8061H1549.65V24.1939H1551.03C1551.69 24.1939 1552.24 24.349 1552.7 24.6593C1553.16 24.9695 1553.51 25.4072 1553.74 25.9723C1553.99 26.5263 1554.11 27.1911 1554.11 27.9668C1554.11 28.7313 1553.99 29.4072 1553.74 29.9945C1553.51 30.5706 1553.16 31.0194 1552.7 31.3407C1552.24 31.651 1551.69 31.8061 1551.03 31.8061ZM1561.56 33.8006V29.1136L1557.84 22.1994H1560.45L1561.86 24.8089L1562.81 27.0859L1563.79 24.7922L1565.2 22.1994H1567.78L1563.97 29.1136V33.8006H1561.56ZM1596.25 34C1595.24 34 1594.36 33.7562 1593.59 33.2687C1592.84 32.7812 1592.25 32.0886 1591.83 31.1911C1591.42 30.2936 1591.21 29.2299 1591.21 28C1591.21 26.759 1591.42 25.6898 1591.83 24.7922C1592.25 23.8947 1592.84 23.2078 1593.59 22.7313C1594.36 22.2438 1595.24 22 1596.25 22C1597.26 22 1598.14 22.2438 1598.89 22.7313C1599.65 23.2078 1600.23 23.8947 1600.65 24.7922C1601.08 25.6787 1601.29 26.7479 1601.29 28C1601.29 29.2299 1601.08 30.2936 1600.65 31.1911C1600.23 32.0886 1599.65 32.7812 1598.89 33.2687C1598.14 33.7562 1597.26 34 1596.25 34ZM1596.25 32.0055C1596.74 32.0055 1597.17 31.8504 1597.55 31.5402C1597.93 31.2188 1598.23 30.759 1598.44 30.1607C1598.67 29.5623 1598.78 28.8421 1598.78 28C1598.78 27.1468 1598.67 26.4266 1598.44 25.8393C1598.23 25.241 1597.93 24.7867 1597.55 24.4765C1597.17 24.1551 1596.74 23.9945 1596.25 23.9945C1595.76 23.9945 1595.33 24.1551 1594.94 24.4765C1594.55 24.7867 1594.24 25.241 1594.02 25.8393C1593.81 26.4377 1593.71 27.1579 1593.71 28C1593.71 28.8421 1593.81 29.5623 1594.02 30.1607C1594.24 30.759 1594.55 31.2188 1594.94 31.5402C1595.33 31.8504 1595.76 32.0055 1596.25 32.0055ZM1603.5 22.1994V33.8006L1611.7 33.8006V31.8061L1605.91 31.8061V22.1994H1603.5ZM1618.52 34C1617.54 34 1616.71 33.8227 1616.01 33.4681C1615.31 33.1025 1614.77 32.5928 1614.4 31.9391C1614.02 31.2853 1613.83 30.5263 1613.83 29.6621V22.1994H1616.26V29.6621C1616.26 30.1385 1616.35 30.5485 1616.54 30.892C1616.73 31.2355 1616.99 31.5069 1617.32 31.7064C1617.67 31.8947 1618.06 31.9889 1618.52 31.9889C1618.98 31.9889 1619.38 31.8947 1619.71 31.7064C1620.06 31.5069 1620.32 31.2355 1620.5 30.892C1620.68 30.5485 1620.78 30.1385 1620.78 29.6621V22.1994H1623.21V29.6621C1623.21 30.5263 1623.02 31.2853 1622.64 31.9391C1622.26 32.5928 1621.73 33.1025 1621.03 33.4681C1620.33 33.8227 1619.49 34 1618.52 34ZM1628.45 24.1939V33.8006H1630.86V24.1939H1634.36V22.1994L1624.94 22.1994V24.1939L1628.45 24.1939ZM1639.59 31.8061V24.1939H1636.85V22.1994H1639.59H1642H1644.74V24.1939H1642V31.8061H1644.74V33.8006H1642H1639.59H1636.85V31.8061H1639.59ZM1649.3 33.2687C1650.07 33.7562 1650.95 34 1651.96 34C1652.97 34 1653.85 33.7562 1654.6 33.2687C1655.36 32.7812 1655.94 32.0886 1656.37 31.1911C1656.79 30.2936 1657 29.2299 1657 28C1657 26.7479 1656.79 25.6787 1656.37 24.7922C1655.94 23.8947 1655.36 23.2078 1654.6 22.7313C1653.85 22.2438 1652.97 22 1651.96 22C1650.95 22 1650.07 22.2438 1649.3 22.7313C1648.55 23.2078 1647.96 23.8947 1647.54 24.7922C1647.13 25.6898 1646.93 26.759 1646.93 28C1646.93 29.2299 1647.13 30.2936 1647.54 31.1911C1647.96 32.0886 1648.55 32.7812 1649.3 33.2687ZM1653.26 31.5402C1652.88 31.8504 1652.45 32.0055 1651.96 32.0055C1651.47 32.0055 1651.04 31.8504 1650.65 31.5402C1650.26 31.2188 1649.96 30.759 1649.73 30.1607C1649.52 29.5623 1649.42 28.8421 1649.42 28C1649.42 27.1579 1649.52 26.4377 1649.73 25.8393C1649.96 25.241 1650.26 24.7867 1650.65 24.4765C1651.04 24.1551 1651.47 23.9945 1651.96 23.9945C1652.45 23.9945 1652.88 24.1551 1653.26 24.4765C1653.65 24.7867 1653.94 25.241 1654.16 25.8393C1654.38 26.4266 1654.49 27.1468 1654.49 28C1654.49 28.8421 1654.38 29.5623 1654.16 30.1607C1653.94 30.759 1653.65 31.2188 1653.26 31.5402ZM1658.62 33.8006V22.1994H1661.67L1665.45 30.7756L1665.28 26.7701V22.1994H1667.57V33.8006H1664.52L1660.71 25.3573L1660.91 29.2299V33.8006H1658.62ZM1671.92 33.4681C1672.6 33.8227 1673.4 34 1674.33 34C1675.17 34 1675.92 33.856 1676.57 33.5679C1677.24 33.2687 1677.76 32.8643 1678.14 32.3546C1678.51 31.8338 1678.7 31.2299 1678.7 30.5429C1678.7 29.8781 1678.58 29.3352 1678.35 28.9141C1678.13 28.482 1677.83 28.1385 1677.45 27.8837C1677.09 27.6177 1676.68 27.4127 1676.24 27.2687C1675.81 27.1136 1675.37 26.9862 1674.93 26.8864C1674.48 26.7756 1674.07 26.6648 1673.7 26.554C1673.33 26.4321 1673.04 26.277 1672.82 26.0886C1672.6 25.9003 1672.48 25.651 1672.48 25.3407C1672.48 24.9086 1672.64 24.5762 1672.97 24.3435C1673.3 24.1108 1673.71 23.9945 1674.21 23.9945C1674.56 23.9945 1674.87 24.0665 1675.16 24.2105C1675.46 24.3435 1675.7 24.5429 1675.89 24.8089C1676.09 25.0748 1676.2 25.4072 1676.21 25.8061H1678.63C1678.61 24.9972 1678.4 24.3102 1677.99 23.7452C1677.58 23.1801 1677.04 22.7479 1676.37 22.4488C1675.72 22.1496 1675 22 1674.21 22C1673.36 22 1672.62 22.1496 1671.99 22.4488C1671.35 22.7479 1670.86 23.1579 1670.51 23.6787C1670.16 24.1884 1669.99 24.7645 1669.99 25.4072C1669.99 26.0277 1670.1 26.5429 1670.32 26.9529C1670.55 27.3518 1670.84 27.6731 1671.2 27.9169C1671.58 28.1607 1671.99 28.3601 1672.43 28.5152C1672.88 28.6704 1673.32 28.8033 1673.75 28.9141C1674.19 29.0249 1674.6 29.1468 1674.96 29.2798C1675.34 29.4017 1675.64 29.5623 1675.86 29.7618C1676.08 29.9612 1676.19 30.2271 1676.19 30.5596C1676.19 31.0139 1676.02 31.3684 1675.68 31.6233C1675.34 31.8781 1674.89 32.0055 1674.33 32.0055C1673.63 32.0055 1673.1 31.8006 1672.73 31.3906C1672.37 30.9806 1672.19 30.3878 1672.19 29.6122H1669.81C1669.81 30.5208 1669.99 31.3019 1670.36 31.9557C1670.72 32.6094 1671.24 33.1136 1671.92 33.4681ZM1693.97 33.8006L1694.62 31.3407H1698.35L1698.99 33.8006H1701.45L1698.29 22.1994H1694.72L1691.58 33.8006H1693.97ZM1697.84 29.3463H1695.14L1695.8 26.8532L1696.5 23.9446L1697.2 26.8532L1697.84 29.3463ZM1703.19 22.1994V33.8006H1705.48V29.2299L1705.28 25.3573L1709.09 33.8006H1712.14V22.1994H1709.85V26.7701L1710.02 30.7756L1706.24 22.1994H1703.19ZM1714.38 33.8006V22.1994H1718.17C1719.03 22.1994 1719.81 22.3379 1720.49 22.615C1721.18 22.8809 1721.77 23.2687 1722.26 23.7784C1722.74 24.277 1723.11 24.8809 1723.37 25.59C1723.62 26.2992 1723.75 27.0914 1723.75 27.9668C1723.75 28.8532 1723.62 29.6565 1723.37 30.3767C1723.11 31.0859 1722.74 31.7008 1722.26 32.2216C1721.77 32.7313 1721.18 33.1247 1720.49 33.4017C1719.81 33.6676 1719.03 33.8006 1718.17 33.8006H1714.38ZM1716.79 31.8061H1718.17C1718.82 31.8061 1719.37 31.651 1719.83 31.3407C1720.29 31.0194 1720.64 30.5706 1720.88 29.9945C1721.12 29.4072 1721.24 28.7313 1721.24 27.9668C1721.24 27.1911 1721.12 26.5263 1720.88 25.9723C1720.64 25.4072 1720.29 24.9695 1719.83 24.6593C1719.37 24.349 1718.82 24.1939 1718.17 24.1939H1716.79V31.8061ZM1738.54 33.2521C1739.29 33.7507 1740.19 34 1741.23 34C1742.17 34 1742.99 33.8338 1743.68 33.5014C1744.36 33.1579 1744.91 32.6759 1745.32 32.0554C1745.73 31.4349 1745.98 30.7036 1746.07 29.8615H1743.43C1743.38 30.3047 1743.26 30.687 1743.06 31.0083C1742.87 31.3296 1742.62 31.5789 1742.31 31.7562C1742 31.9224 1741.64 32.0055 1741.23 32.0055C1740.74 32.0055 1740.31 31.8504 1739.92 31.5402C1739.53 31.2299 1739.23 30.7756 1739.01 30.1773C1738.78 29.5789 1738.67 28.8532 1738.67 28C1738.67 27.1468 1738.78 26.4211 1739.01 25.8227C1739.24 25.2244 1739.55 24.7701 1739.95 24.4598C1740.35 24.1496 1740.81 23.9945 1741.32 23.9945C1741.9 23.9945 1742.37 24.1828 1742.73 24.5596C1743.08 24.9363 1743.29 25.4349 1743.36 26.0554H1746C1745.95 25.2022 1745.7 24.4765 1745.25 23.8781C1744.82 23.2687 1744.26 22.8033 1743.58 22.482C1742.89 22.1607 1742.14 22 1741.32 22C1740.27 22 1739.37 22.2493 1738.59 22.7479C1737.83 23.2355 1737.23 23.928 1736.81 24.8255C1736.39 25.723 1736.18 26.7812 1736.18 28C1736.18 29.1967 1736.38 30.2493 1736.79 31.1579C1737.2 32.0554 1737.79 32.7535 1738.54 33.2521ZM1749.68 33.8006L1750.33 31.3407H1754.07L1754.7 33.8006L1757.16 33.8006L1754 22.1994H1750.43L1747.29 33.8006H1749.68ZM1753.55 29.3463H1750.85L1751.51 26.8532L1752.21 23.9446L1752.91 26.8532L1753.55 29.3463ZM1761.06 33.4681C1761.73 33.8227 1762.54 34 1763.47 34C1764.31 34 1765.06 33.856 1765.71 33.5679C1766.38 33.2687 1766.9 32.8643 1767.27 32.3546C1767.65 31.8338 1767.84 31.2299 1767.84 30.5429C1767.84 29.8781 1767.72 29.3352 1767.49 28.9141C1767.27 28.482 1766.97 28.1385 1766.59 27.8837C1766.23 27.6177 1765.82 27.4127 1765.38 27.2687C1764.95 27.1136 1764.51 26.9862 1764.07 26.8864C1763.62 26.7756 1763.21 26.6648 1762.84 26.554C1762.47 26.4321 1762.18 26.277 1761.95 26.0886C1761.73 25.9003 1761.62 25.651 1761.62 25.3407C1761.62 24.9086 1761.78 24.5762 1762.1 24.3435C1762.44 24.1108 1762.85 23.9945 1763.35 23.9945C1763.69 23.9945 1764.01 24.0665 1764.3 24.2105C1764.6 24.3435 1764.84 24.5429 1765.03 24.8089C1765.23 25.0748 1765.33 25.4072 1765.35 25.8061H1767.77C1767.75 24.9972 1767.53 24.3102 1767.12 23.7452C1766.71 23.1801 1766.18 22.7479 1765.51 22.4488C1764.86 22.1496 1764.14 22 1763.35 22C1762.5 22 1761.76 22.1496 1761.12 22.4488C1760.49 22.7479 1760 23.1579 1759.64 23.6787C1759.3 24.1884 1759.13 24.7645 1759.13 25.4072C1759.13 26.0277 1759.24 26.5429 1759.46 26.9529C1759.68 27.3518 1759.98 27.6731 1760.34 27.9169C1760.72 28.1607 1761.13 28.3601 1761.57 28.5152C1762.02 28.6704 1762.45 28.8033 1762.89 28.9141C1763.33 29.0249 1763.73 29.1468 1764.1 29.2798C1764.48 29.4017 1764.77 29.5623 1765 29.7618C1765.22 29.9612 1765.33 30.2271 1765.33 30.5596C1765.33 31.0139 1765.16 31.3684 1764.81 31.6233C1764.48 31.8781 1764.03 32.0055 1763.47 32.0055C1762.77 32.0055 1762.24 31.8006 1761.87 31.3906C1761.51 30.9806 1761.32 30.3878 1761.32 29.6122H1758.95C1758.95 30.5208 1759.13 31.3019 1759.49 31.9557C1759.86 32.6094 1760.38 33.1136 1761.06 33.4681ZM1770.37 33.8006V22.1994L1778.88 22.1994V24.1939L1772.8 24.1939V26.8033L1776.82 26.8033V28.7978L1772.8 28.7978V31.8061L1778.95 31.8061V33.8006H1770.37ZM1783.34 33.4681C1784.02 33.8227 1784.82 34 1785.75 34C1786.59 34 1787.34 33.856 1788 33.5679C1788.66 33.2687 1789.18 32.8643 1789.56 32.3546C1789.93 31.8338 1790.12 31.2299 1790.12 30.5429C1790.12 29.8781 1790.01 29.3352 1789.77 28.9141C1789.55 28.482 1789.25 28.1385 1788.88 27.8837C1788.51 27.6177 1788.11 27.4127 1787.66 27.2687C1787.23 27.1136 1786.79 26.9862 1786.35 26.8864C1785.91 26.7756 1785.5 26.6648 1785.12 26.554C1784.75 26.4321 1784.46 26.277 1784.24 26.0886C1784.02 25.9003 1783.91 25.651 1783.91 25.3407C1783.91 24.9086 1784.07 24.5762 1784.39 24.3435C1784.72 24.1108 1785.14 23.9945 1785.64 23.9945C1785.98 23.9945 1786.29 24.0665 1786.58 24.2105C1786.88 24.3435 1787.13 24.5429 1787.31 24.8089C1787.51 25.0748 1787.62 25.4072 1787.63 25.8061H1790.06C1790.03 24.9972 1789.82 24.3102 1789.41 23.7452C1789 23.1801 1788.46 22.7479 1787.8 22.4488C1787.14 22.1496 1786.42 22 1785.64 22C1784.78 22 1784.04 22.1496 1783.41 22.4488C1782.78 22.7479 1782.28 23.1579 1781.93 23.6787C1781.59 24.1884 1781.41 24.7645 1781.41 25.4072C1781.41 26.0277 1781.52 26.5429 1781.75 26.9529C1781.97 27.3518 1782.26 27.6731 1782.63 27.9169C1783 28.1607 1783.41 28.3601 1783.86 28.5152C1784.3 28.6704 1784.74 28.8033 1785.17 28.9141C1785.61 29.0249 1786.02 29.1468 1786.38 29.2798C1786.76 29.4017 1787.06 29.5623 1787.28 29.7618C1787.5 29.9612 1787.61 30.2271 1787.61 30.5596C1787.61 31.0139 1787.44 31.3684 1787.1 31.6233C1786.77 31.8781 1786.32 32.0055 1785.75 32.0055C1785.05 32.0055 1784.52 31.8006 1784.16 31.3906C1783.79 30.9806 1783.61 30.3878 1783.61 29.6122H1781.23C1781.23 30.5208 1781.41 31.3019 1781.78 31.9557C1782.14 32.6094 1782.67 33.1136 1783.34 33.4681Z" fill="#1D1D1E"/>
<path d="M1855 33.8006V22.1994H1858.78C1859.64 22.1994 1860.42 22.338 1861.1 22.615C1861.79 22.8809 1862.38 23.2687 1862.86 23.7784C1863.35 24.277 1863.72 24.8809 1863.97 25.59C1864.23 26.2992 1864.36 27.0914 1864.36 27.9668C1864.36 28.8532 1864.23 29.6565 1863.97 30.3767C1863.72 31.0859 1863.35 31.7008 1862.86 32.2216C1862.38 32.7313 1861.79 33.1247 1861.1 33.4017C1860.42 33.6676 1859.64 33.8006 1858.78 33.8006H1855ZM1857.41 31.8061H1858.78C1859.43 31.8061 1859.99 31.651 1860.44 31.3407C1860.91 31.0194 1861.25 30.5706 1861.49 29.9945C1861.73 29.4072 1861.85 28.7313 1861.85 27.9668C1861.85 27.1911 1861.73 26.5263 1861.49 25.9723C1861.25 25.4072 1860.91 24.9695 1860.44 24.6593C1859.99 24.349 1859.43 24.1939 1858.78 24.1939H1857.41V31.8061Z" fill="white"/>
<path d="M1870.55 34C1869.54 34 1868.66 33.7562 1867.9 33.2687C1867.14 32.7812 1866.56 32.0886 1866.14 31.1911C1865.73 30.2936 1865.52 29.2299 1865.52 28C1865.52 26.759 1865.73 25.6898 1866.14 24.7922C1866.56 23.8947 1867.14 23.2078 1867.9 22.7313C1868.66 22.2438 1869.54 22 1870.55 22C1871.56 22 1872.44 22.2438 1873.19 22.7313C1873.94 23.2078 1874.53 23.8947 1874.95 24.7922C1875.37 25.6787 1875.58 26.7479 1875.58 28C1875.58 29.2299 1875.37 30.2936 1874.95 31.1911C1874.53 32.0886 1873.94 32.7812 1873.19 33.2687C1872.44 33.7562 1871.56 34 1870.55 34ZM1870.55 32.0055C1871.04 32.0055 1871.47 31.8504 1871.84 31.5402C1872.23 31.2188 1872.53 30.759 1872.74 30.1607C1872.96 29.5623 1873.07 28.8421 1873.07 28C1873.07 27.1468 1872.96 26.4266 1872.74 25.8393C1872.53 25.241 1872.23 24.7867 1871.84 24.4765C1871.47 24.1551 1871.04 23.9945 1870.55 23.9945C1870.06 23.9945 1869.63 24.1551 1869.24 24.4765C1868.85 24.7867 1868.55 25.241 1868.33 25.8393C1868.12 26.4377 1868.01 27.1579 1868.01 28C1868.01 28.8421 1868.12 29.5623 1868.33 30.1607C1868.55 30.759 1868.85 31.2188 1869.24 31.5402C1869.63 31.8504 1870.06 32.0055 1870.55 32.0055Z" fill="white"/>
<path d="M1881.8 34C1880.76 34 1879.87 33.7507 1879.12 33.2521C1878.36 32.7535 1877.78 32.0554 1877.37 31.1579C1876.96 30.2493 1876.76 29.1967 1876.76 28C1876.76 26.7812 1876.97 25.723 1877.39 24.8255C1877.81 23.928 1878.4 23.2355 1879.17 22.7479C1879.94 22.2493 1880.85 22 1881.89 22C1882.7 22 1883.46 22.1607 1884.14 22.482C1884.83 22.8033 1885.39 23.2687 1885.82 23.8781C1886.26 24.4765 1886.51 25.2022 1886.56 26.0554H1883.93C1883.86 25.4349 1883.65 24.9363 1883.3 24.5596C1882.94 24.1828 1882.47 23.9945 1881.89 23.9945C1881.38 23.9945 1880.92 24.1496 1880.53 24.4598C1880.13 24.7701 1879.81 25.2244 1879.58 25.8227C1879.36 26.4211 1879.25 27.1468 1879.25 28C1879.25 28.8532 1879.36 29.5789 1879.58 30.1773C1879.8 30.7756 1880.11 31.2299 1880.49 31.5402C1880.88 31.8504 1881.32 32.0055 1881.8 32.0055C1882.21 32.0055 1882.57 31.9224 1882.88 31.7562C1883.19 31.5789 1883.44 31.3296 1883.63 31.0083C1883.83 30.687 1883.95 30.3047 1883.99 29.8615H1886.63C1886.54 30.7036 1886.29 31.4349 1885.88 32.0554C1885.47 32.6759 1884.93 33.1579 1884.24 33.5014C1883.56 33.8338 1882.74 34 1881.8 34Z" fill="white"/>
<path d="M1892.77 34C1891.8 34 1890.97 33.8227 1890.27 33.4681C1889.57 33.1025 1889.04 32.5928 1888.66 31.9391C1888.28 31.2853 1888.1 30.5263 1888.1 29.6621V22.1994H1890.52V29.6621C1890.52 30.1385 1890.61 30.5485 1890.8 30.892C1890.99 31.2355 1891.25 31.5069 1891.58 31.7064C1891.92 31.8947 1892.32 31.9889 1892.77 31.9889C1893.24 31.9889 1893.64 31.8947 1893.97 31.7064C1894.31 31.5069 1894.57 31.2355 1894.75 30.892C1894.94 30.5485 1895.03 30.1385 1895.03 29.6621V22.1994H1897.45V29.6621C1897.45 30.5263 1897.26 31.2853 1896.89 31.9391C1896.51 32.5928 1895.98 33.1025 1895.28 33.4681C1894.58 33.8227 1893.75 34 1892.77 34Z" fill="white"/>
<path d="M1898.82 33.8006L1899.63 22.1994L1902.63 22.1994L1903.63 27.9003L1903.94 30.3435L1904.26 27.9003L1905.24 22.1994H1908.17L1909 33.8006H1906.65L1906.47 27.7008L1906.43 24.6593L1905.95 27.7008L1904.84 33.8006H1902.93L1901.8 27.7008L1901.34 24.626L1901.31 27.7008L1901.11 33.8006H1898.82Z" fill="white"/>
<path d="M1910.88 33.8006V22.1994L1919.38 22.1994V24.1939L1913.31 24.1939V26.8033L1917.32 26.8033V28.7978L1913.31 28.7978V31.8061L1919.44 31.8061V33.8006H1910.88Z" fill="white"/>
<path d="M1921.67 33.8006V22.1994H1924.73L1928.49 30.7756L1928.33 26.7701V22.1994H1930.61V33.8006H1927.56L1923.76 25.3573L1923.96 29.2299V33.8006H1921.67Z" fill="white"/>
<path d="M1936.05 33.8006V24.1939H1932.55V22.1994L1941.95 22.1994V24.1939H1938.45V33.8006H1936.05Z" fill="white"/>
<path d="M1945.18 31.3407V29.3463H1951.86V31.3407L1945.18 31.3407ZM1946.59 22.1994H1950.15L1953.3 33.8006L1950.85 33.8006L1949.06 26.8532L1948.36 23.9446L1947.66 26.8532L1945.84 33.8006H1943.45L1946.59 22.1994Z" fill="white"/>
<path d="M1958.29 33.8006V24.1939H1954.79V22.1994L1964.19 22.1994V24.1939H1960.69V33.8006H1958.29Z" fill="white"/>
<path d="M1969.41 33.8006V22.1994H1971.81V33.8006H1969.41ZM1966.67 22.1994L1974.55 22.1994V24.1939H1966.67V22.1994ZM1966.67 31.8061H1974.55V33.8006H1966.67V31.8061Z" fill="white"/>
<path d="M1981.76 34C1980.75 34 1979.86 33.7562 1979.1 33.2687C1978.35 32.7812 1977.76 32.0886 1977.34 31.1911C1976.93 30.2936 1976.73 29.2299 1976.73 28C1976.73 26.759 1976.93 25.6898 1977.34 24.7922C1977.76 23.8947 1978.35 23.2078 1979.1 22.7313C1979.86 22.2438 1980.75 22 1981.76 22C1982.76 22 1983.64 22.2438 1984.39 22.7313C1985.14 23.2078 1985.73 23.8947 1986.15 24.7922C1986.57 25.6787 1986.78 26.7479 1986.78 28C1986.78 29.2299 1986.57 30.2936 1986.15 31.1911C1985.73 32.0886 1985.14 32.7812 1984.39 33.2687C1983.64 33.7562 1982.76 34 1981.76 34ZM1981.76 32.0055C1982.24 32.0055 1982.67 31.8504 1983.05 31.5402C1983.44 31.2188 1983.73 30.759 1983.94 30.1607C1984.17 29.5623 1984.28 28.8421 1984.28 28C1984.28 27.1468 1984.17 26.4266 1983.94 25.8393C1983.73 25.241 1983.44 24.7867 1983.05 24.4765C1982.67 24.1551 1982.24 23.9945 1981.76 23.9945C1981.27 23.9945 1980.83 24.1551 1980.44 24.4765C1980.06 24.7867 1979.75 25.241 1979.53 25.8393C1979.32 26.4377 1979.22 27.1579 1979.22 28C1979.22 28.8421 1979.32 29.5623 1979.53 30.1607C1979.75 30.759 1980.06 31.2188 1980.44 31.5402C1980.83 31.8504 1981.27 32.0055 1981.76 32.0055Z" fill="white"/>
<path d="M1988.4 33.8006V22.1994H1991.45L1995.21 30.7756L1995.05 26.7701V22.1994H1997.34V33.8006H1994.29L1990.49 25.3573L1990.69 29.2299V33.8006H1988.4Z" fill="white"/>
<path d="M2011.9 31.3407V29.3463L2018.58 29.3463V31.3407L2011.9 31.3407ZM2013.31 22.1994H2016.88L2020.03 33.8006H2017.57L2015.78 26.8532L2015.08 23.9446L2014.39 26.8532L2012.56 33.8006H2010.17L2013.31 22.1994Z" fill="white"/>
<path d="M2021.76 33.8006V22.1994H2024.81L2028.58 30.7756L2028.41 26.7701V22.1994L2030.7 22.1994V33.8006H2027.65L2023.85 25.3573L2024.05 29.2299V33.8006H2021.76Z" fill="white"/>
<path d="M2032.93 33.8006V22.1994H2036.71C2037.57 22.1994 2038.35 22.338 2039.03 22.615C2039.72 22.8809 2040.3 23.2687 2040.79 23.7784C2041.28 24.277 2041.65 24.8809 2041.9 25.59C2042.16 26.2992 2042.28 27.0914 2042.28 27.9668C2042.28 28.8532 2042.16 29.6565 2041.9 30.3767C2041.65 31.0859 2041.28 31.7008 2040.79 32.2216C2040.3 32.7313 2039.72 33.1247 2039.03 33.4017C2038.35 33.6676 2037.57 33.8006 2036.71 33.8006H2032.93ZM2035.33 31.8061H2036.71C2037.36 31.8061 2037.92 31.651 2038.37 31.3407C2038.83 31.0194 2039.18 30.5706 2039.41 29.9945C2039.66 29.4072 2039.78 28.7313 2039.78 27.9668C2039.78 27.1911 2039.66 26.5263 2039.41 25.9723C2039.18 25.4072 2038.83 24.9695 2038.37 24.6593C2037.92 24.349 2037.36 24.1939 2036.71 24.1939H2035.33V31.8061Z" fill="white"/>
<path d="M2059.68 34C2058.75 34 2057.95 33.8227 2057.28 33.4681C2056.6 33.1136 2056.08 32.6094 2055.72 31.9557C2055.35 31.3019 2055.17 30.5208 2055.17 29.6122H2057.54C2057.54 30.3878 2057.72 30.9806 2058.09 31.3906C2058.45 31.8006 2058.99 32.0055 2059.68 32.0055C2060.25 32.0055 2060.69 31.8781 2061.03 31.6233C2061.37 31.3684 2061.54 31.0139 2061.54 30.5596C2061.54 30.2271 2061.43 29.9612 2061.21 29.7618C2060.99 29.5623 2060.69 29.4017 2060.31 29.2798C2059.95 29.1468 2059.54 29.0249 2059.1 28.9141C2058.67 28.8033 2058.23 28.6704 2057.79 28.5152C2057.35 28.3601 2056.94 28.1607 2056.56 27.9169C2056.2 27.6731 2055.91 27.3518 2055.68 26.9529C2055.46 26.5429 2055.35 26.0277 2055.35 25.4072C2055.35 24.7645 2055.52 24.1884 2055.87 23.6787C2056.22 23.1579 2056.71 22.7479 2057.34 22.4488C2057.97 22.1496 2058.71 22 2059.57 22C2060.35 22 2061.07 22.1496 2061.72 22.4488C2062.39 22.7479 2062.92 23.1801 2063.33 23.7452C2063.74 24.3102 2063.96 24.9972 2063.98 25.8061H2061.56C2061.55 25.4072 2061.44 25.0748 2061.24 24.8089C2061.05 24.5429 2060.81 24.3435 2060.51 24.2105C2060.22 24.0665 2059.91 23.9945 2059.57 23.9945C2059.07 23.9945 2058.65 24.1108 2058.32 24.3435C2058 24.5762 2057.84 24.9086 2057.84 25.3407C2057.84 25.651 2057.95 25.9003 2058.17 26.0886C2058.39 26.277 2058.69 26.4321 2059.05 26.554C2059.43 26.6648 2059.84 26.7756 2060.28 26.8864C2060.72 26.9862 2061.16 27.1136 2061.59 27.2687C2062.03 27.4127 2062.44 27.6177 2062.8 27.8837C2063.18 28.1385 2063.47 28.482 2063.7 28.9141C2063.93 29.3352 2064.04 29.8781 2064.04 30.5429C2064.04 31.2299 2063.86 31.8338 2063.48 32.3546C2063.1 32.8643 2062.58 33.2687 2061.92 33.5679C2061.27 33.856 2060.52 34 2059.68 34Z" fill="white"/>
<path d="M2070.7 34C2069.73 34 2068.89 33.8227 2068.2 33.4681C2067.5 33.1025 2066.96 32.5928 2066.59 31.9391C2066.21 31.2853 2066.02 30.5263 2066.02 29.6621V22.1994H2068.45V29.6621C2068.45 30.1385 2068.54 30.5485 2068.73 30.892C2068.92 31.2355 2069.18 31.5069 2069.51 31.7064C2069.85 31.8947 2070.25 31.9889 2070.7 31.9889C2071.17 31.9889 2071.57 31.8947 2071.9 31.7064C2072.24 31.5069 2072.5 31.2355 2072.68 30.892C2072.86 30.5485 2072.96 30.1385 2072.96 29.6621V22.1994H2075.38V29.6621C2075.38 30.5263 2075.19 31.2853 2074.82 31.9391C2074.44 32.5928 2073.9 33.1025 2073.21 33.4681C2072.51 33.8227 2071.68 34 2070.7 34Z" fill="white"/>
<path d="M2079.27 29.9612V27.9668H2082.04C2082.64 27.9668 2083.12 27.7895 2083.48 27.4349C2083.85 27.0803 2084.03 26.615 2084.03 26.0388C2084.03 25.4848 2083.85 25.0416 2083.5 24.7091C2083.14 24.3657 2082.67 24.1939 2082.09 24.1939H2079.27V22.1994H2082.11C2082.99 22.1994 2083.76 22.3601 2084.43 22.6814C2085.09 22.9917 2085.61 23.4349 2085.97 24.0111C2086.34 24.5873 2086.52 25.2632 2086.52 26.0388C2086.52 26.8255 2086.34 27.5125 2085.97 28.0997C2085.61 28.687 2085.09 29.1468 2084.41 29.4792C2083.75 29.8006 2082.96 29.9612 2082.06 29.9612H2079.27ZM2077.54 33.8006V22.1994H2079.95V33.8006H2077.54Z" fill="white"/>
<path d="M2090.39 29.9612V27.9668H2093.16C2093.76 27.9668 2094.24 27.7895 2094.6 27.4349C2094.97 27.0803 2095.15 26.615 2095.15 26.0388C2095.15 25.4848 2094.97 25.0416 2094.62 24.7091C2094.27 24.3657 2093.8 24.1939 2093.21 24.1939H2090.39V22.1994H2093.23C2094.11 22.1994 2094.88 22.3601 2095.55 22.6814C2096.21 22.9917 2096.73 23.4349 2097.09 24.0111C2097.46 24.5873 2097.64 25.2632 2097.64 26.0388C2097.64 26.8255 2097.46 27.5125 2097.09 28.0997C2096.73 28.687 2096.21 29.1468 2095.53 29.4792C2094.87 29.8006 2094.08 29.9612 2093.18 29.9612H2090.39ZM2088.66 33.8006V22.1994H2091.07V33.8006H2088.66Z" fill="white"/>
<path d="M2104.08 34C2103.07 34 2102.19 33.7562 2101.43 33.2687C2100.67 32.7812 2100.09 32.0886 2099.67 31.1911C2099.26 30.2936 2099.05 29.2299 2099.05 28C2099.05 26.759 2099.26 25.6898 2099.67 24.7922C2100.09 23.8947 2100.67 23.2078 2101.43 22.7313C2102.19 22.2438 2103.07 22 2104.08 22C2105.09 22 2105.97 22.2438 2106.72 22.7313C2107.47 23.2078 2108.06 23.8947 2108.48 24.7922C2108.9 25.6787 2109.11 26.7479 2109.11 28C2109.11 29.2299 2108.9 30.2936 2108.48 31.1911C2108.06 32.0886 2107.47 32.7812 2106.72 33.2687C2105.97 33.7562 2105.09 34 2104.08 34ZM2104.08 32.0055C2104.57 32.0055 2105 31.8504 2105.37 31.5402C2105.76 31.2188 2106.06 30.759 2106.27 30.1607C2106.49 29.5623 2106.6 28.8421 2106.6 28C2106.6 27.1468 2106.49 26.4266 2106.27 25.8393C2106.06 25.241 2105.76 24.7867 2105.37 24.4765C2105 24.1551 2104.57 23.9945 2104.08 23.9945C2103.59 23.9945 2103.16 24.1551 2102.77 24.4765C2102.38 24.7867 2102.08 25.241 2101.86 25.8393C2101.65 26.4377 2101.54 27.1579 2101.54 28C2101.54 28.8421 2101.65 29.5623 2101.86 30.1607C2102.08 30.759 2102.38 31.2188 2102.77 31.5402C2103.16 31.8504 2103.59 32.0055 2104.08 32.0055Z" fill="white"/>
<path d="M2112.68 29.2964V27.3019H2115.4C2115.79 27.3019 2116.13 27.2355 2116.41 27.1025C2116.7 26.9584 2116.93 26.7645 2117.09 26.5208C2117.26 26.277 2117.34 25.9945 2117.34 25.6731C2117.34 25.374 2117.26 25.1136 2117.11 24.892C2116.97 24.6704 2116.77 24.4986 2116.51 24.3767C2116.26 24.2548 2115.97 24.1939 2115.65 24.1939H2112.68V22.1994H2115.65C2116.46 22.1994 2117.18 22.338 2117.81 22.615C2118.44 22.892 2118.93 23.2909 2119.28 23.8116C2119.65 24.3213 2119.83 24.9418 2119.83 25.6731C2119.83 26.1274 2119.72 26.5706 2119.51 27.0028C2119.3 27.4238 2119 27.8116 2118.6 28.1662C2118.2 28.5097 2117.72 28.7867 2117.16 28.9972C2116.61 29.1967 2115.98 29.2964 2115.27 29.2964H2112.68ZM2110.96 33.8006V22.1994H2113.36V33.8006H2110.96ZM2117.37 33.8006C2117.35 33.3019 2117.24 32.8033 2117.04 32.3047C2116.85 31.795 2116.59 31.3075 2116.25 30.8421C2115.9 30.3767 2115.47 29.9557 2114.95 29.5789C2114.44 29.1911 2113.86 28.8643 2113.19 28.5983L2115.87 28.0499C2116.54 28.3823 2117.12 28.7756 2117.61 29.2299C2118.1 29.6731 2118.51 30.1496 2118.83 30.6593C2119.17 31.1579 2119.41 31.6787 2119.56 32.2216C2119.73 32.7535 2119.82 33.2798 2119.85 33.8006H2117.37Z" fill="white"/>
<path d="M2125.09 33.8006V24.1939H2121.59V22.1994H2131V24.1939H2127.5V33.8006H2125.09Z" fill="white"/>
<path fill-rule="evenodd" clip-rule="evenodd" d="M1090 0H0V56H1090V0Z" fill="url(#paint2_linear_2116_4425)"/>
<path fill-rule="evenodd" clip-rule="evenodd" d="M409 4L40 4L40 52L409 52L409 4ZM76.7378 33.2521C77.4913 33.7507 78.3888 34 79.4303 34C80.3721 34 81.1865 33.8338 81.8735 33.5014C82.5605 33.1579 83.109 32.6759 83.519 32.0554C83.9289 31.4349 84.1782 30.7036 84.2669 29.8615L81.6242 29.8615C81.5799 30.3047 81.458 30.687 81.2586 31.0083C81.0702 31.3296 80.8209 31.5789 80.5106 31.7562C80.2004 31.9224 79.8403 32.0055 79.4303 32.0055C78.9428 32.0055 78.5051 31.8504 78.1173 31.5402C77.7295 31.2299 77.4248 30.7756 77.2032 30.1773C76.9816 29.5789 76.8708 28.8532 76.8708 28C76.8708 27.1468 76.9816 26.4211 77.2032 25.8227C77.4359 25.2244 77.7516 24.7701 78.1505 24.4598C78.5494 24.1496 79.0037 23.9945 79.5134 23.9945C80.1007 23.9945 80.5716 24.1828 80.9262 24.5596C81.2807 24.9363 81.4913 25.4349 81.5577 26.0554L84.2004 26.0554C84.145 25.2022 83.8957 24.4765 83.4525 23.8781C83.0203 23.2687 82.4608 22.8033 81.7738 22.482C81.0868 22.1607 80.3334 22 79.5134 22C78.4719 22 77.5633 22.2493 76.7877 22.7479C76.0231 23.2355 75.4303 23.928 75.0093 24.8255C74.5882 25.723 74.3777 26.7812 74.3777 28C74.3777 29.1967 74.5827 30.2493 74.9926 31.1579C75.4026 32.0554 75.9843 32.7535 76.7378 33.2521ZM64 22.1994L64 33.8006L72.5762 33.8006L72.5762 31.8061L66.4266 31.8061L66.4266 28.7978L70.4488 28.7978L70.4488 26.8033L66.4266 26.8033L66.4266 24.1939L72.5097 24.1939L72.5097 22.1994L64 22.1994ZM90.4396 34C89.4313 34 88.5448 33.7562 87.7803 33.2687C87.0268 32.7812 86.4396 32.0886 86.0185 31.1911C85.6086 30.2936 85.4036 29.2299 85.4036 28C85.4036 26.759 85.6086 25.6898 86.0185 24.7922C86.4396 23.8947 87.0268 23.2078 87.7803 22.7313C88.5448 22.2438 89.4313 22 90.4396 22C91.4479 22 92.3288 22.2438 93.0822 22.7313C93.8357 23.2078 94.423 23.8947 94.844 24.7922C95.2651 25.6787 95.4756 26.7479 95.4756 28C95.4756 29.2299 95.2651 30.2936 94.844 31.1911C94.423 32.0886 93.8357 32.7812 93.0822 33.2687C92.3288 33.7562 91.4479 34 90.4396 34ZM90.4396 32.0055C90.9271 32.0055 91.3592 31.8504 91.736 31.5402C92.1238 31.2188 92.423 30.759 92.6335 30.1607C92.8551 29.5623 92.9659 28.8421 92.9659 28C92.9659 27.1468 92.8551 26.4266 92.6335 25.8393C92.423 25.241 92.1238 24.7867 91.736 24.4765C91.3592 24.1551 90.9271 23.9945 90.4396 23.9945C89.952 23.9945 89.5144 24.1551 89.1266 24.4765C88.7387 24.7867 88.434 25.241 88.2124 25.8393C88.0019 26.4377 87.8966 27.1579 87.8966 28C87.8966 28.8421 88.0019 29.5623 88.2124 30.1607C88.434 30.759 88.7387 31.2188 89.1266 31.5402C89.5144 31.8504 89.952 32.0055 90.4396 32.0055ZM99.2549 33.4681C99.9308 33.8227 100.734 34 101.665 34C102.507 34 103.255 33.856 103.909 33.5679C104.573 33.2687 105.094 32.8643 105.471 32.3546C105.848 31.8338 106.036 31.2299 106.036 30.5429C106.036 29.8781 105.92 29.3352 105.687 28.9141C105.465 28.482 105.166 28.1385 104.79 27.8837C104.424 27.6177 104.019 27.4127 103.576 27.2687C103.144 27.1136 102.706 26.9862 102.263 26.8864C101.82 26.7756 101.41 26.6648 101.033 26.554C100.668 26.4321 100.374 26.277 100.152 26.0886C99.9308 25.9003 99.82 25.651 99.82 25.3407C99.82 24.9086 99.9807 24.5762 100.302 24.3435C100.634 24.1108 101.05 23.9945 101.549 23.9945C101.892 23.9945 102.208 24.0665 102.496 24.2105C102.795 24.3435 103.039 24.5429 103.227 24.8089C103.427 25.0748 103.532 25.4072 103.543 25.8061L105.97 25.8061C105.947 24.9972 105.731 24.3102 105.321 23.7452C104.911 23.1801 104.374 22.7479 103.709 22.4488C103.055 22.1496 102.335 22 101.549 22C100.695 22 99.953 22.1496 99.3214 22.4488C98.6898 22.7479 98.1968 23.1579 97.8422 23.6787C97.4987 24.1884 97.327 24.7645 97.327 25.4072C97.327 26.0277 97.4378 26.5429 97.6594 26.9529C97.881 27.3518 98.1746 27.6731 98.5403 27.9169C98.917 28.1607 99.327 28.3601 99.7702 28.5152C100.213 28.6704 100.651 28.8033 101.083 28.9141C101.526 29.0249 101.931 29.1468 102.296 29.2798C102.673 29.4017 102.972 29.5623 103.194 29.7618C103.416 29.9612 103.526 30.2271 103.526 30.5596C103.526 31.0139 103.355 31.3684 103.011 31.6233C102.679 31.8781 102.23 32.0055 101.665 32.0055C100.967 32.0055 100.435 31.8006 100.069 31.3906C99.7037 30.9806 99.5209 30.3878 99.5209 29.6122L97.1441 29.6122C97.1441 30.5208 97.327 31.3019 97.6926 31.9557C98.0583 32.6094 98.579 33.1136 99.2549 33.4681ZM111.461 33.8006L111.461 29.1136L107.738 22.1994L110.347 22.1994L111.76 24.8089L112.707 27.0859L113.688 24.7922L115.101 22.1994L117.677 22.1994L113.871 29.1136L113.871 33.8006L111.461 33.8006ZM121.539 33.4681C122.215 33.8227 123.019 34 123.949 34C124.791 34 125.539 33.856 126.193 33.5679C126.858 33.2687 127.379 32.8643 127.755 32.3546C128.132 31.8338 128.321 31.2299 128.321 30.5429C128.321 29.8781 128.204 29.3352 127.972 28.9141C127.75 28.482 127.451 28.1385 127.074 27.8837C126.708 27.6177 126.304 27.4127 125.861 27.2687C125.429 27.1136 124.991 26.9862 124.548 26.8864C124.104 26.7756 123.695 26.6648 123.318 26.554C122.952 26.4321 122.659 26.277 122.437 26.0886C122.215 25.9003 122.104 25.651 122.104 25.3407C122.104 24.9086 122.265 24.5762 122.586 24.3435C122.919 24.1108 123.334 23.9945 123.833 23.9945C124.177 23.9945 124.492 24.0665 124.78 24.2105C125.08 24.3435 125.323 24.5429 125.512 24.8089C125.711 25.0748 125.816 25.4072 125.827 25.8061L128.254 25.8061C128.232 24.9972 128.016 24.3102 127.606 23.7452C127.196 23.1801 126.659 22.7479 125.994 22.4488C125.34 22.1496 124.62 22 123.833 22C122.98 22 122.237 22.1496 121.606 22.4488C120.974 22.7479 120.481 23.1579 120.127 23.6787C119.783 24.1884 119.611 24.7645 119.611 25.4072C119.611 26.0277 119.722 26.5429 119.944 26.9529C120.165 27.3518 120.459 27.6731 120.825 27.9169C121.201 28.1607 121.611 28.3601 122.055 28.5152C122.498 28.6704 122.936 28.8033 123.368 28.9141C123.811 29.0249 124.215 29.1468 124.581 29.2798C124.958 29.4017 125.257 29.5623 125.478 29.7618C125.7 29.9612 125.811 30.2271 125.811 30.5596C125.811 31.0139 125.639 31.3684 125.296 31.6233C124.963 31.8781 124.514 32.0055 123.949 32.0055C123.251 32.0055 122.719 31.8006 122.354 31.3906C121.988 30.9806 121.805 30.3878 121.805 29.6122L119.429 29.6122C119.429 30.5208 119.611 31.3019 119.977 31.9557C120.343 32.6094 120.863 33.1136 121.539 33.4681ZM133.779 33.8006L133.779 24.1939L130.272 24.1939L130.272 22.1994L139.695 22.1994L139.695 24.1939L136.189 24.1939L136.189 33.8006L133.779 33.8006ZM141.996 22.1994L141.996 33.8006L150.572 33.8006L150.572 31.8061L144.422 31.8061L144.422 28.7978L148.444 28.7978L148.444 26.8033L144.422 26.8033L144.422 24.1939L150.505 24.1939L150.505 22.1994L141.996 22.1994ZM152.19 33.8006L153.005 22.1994L156.013 22.1994L157.01 27.9003L157.326 30.3435L157.642 27.9003L158.623 22.1994L161.564 22.1994L162.395 33.8006L160.035 33.8006L159.852 27.7008L159.819 24.6593L159.337 27.7008L158.224 33.8006L156.312 33.8006L155.182 27.7008L154.717 24.626L154.684 27.7008L154.484 33.8006L152.19 33.8006ZM178.347 24.1939L178.347 33.8006L180.757 33.8006L180.757 24.1939L184.264 24.1939L184.264 22.1994L174.841 22.1994L174.841 24.1939L178.347 24.1939ZM190.72 34C189.711 34 188.825 33.7562 188.06 33.2687C187.307 32.7812 186.72 32.0886 186.299 31.1911C185.889 30.2936 185.684 29.2299 185.684 28C185.684 26.759 185.889 25.6898 186.299 24.7922C186.72 23.8947 187.307 23.2078 188.06 22.7313C188.825 22.2438 189.711 22 190.72 22C191.728 22 192.609 22.2438 193.362 22.7313C194.116 23.2078 194.703 23.8947 195.124 24.7922C195.545 25.6787 195.756 26.7479 195.756 28C195.756 29.2299 195.545 30.2936 195.124 31.1911C194.703 32.0886 194.116 32.7812 193.362 33.2687C192.609 33.7562 191.728 34 190.72 34ZM190.72 32.0055C191.207 32.0055 191.639 31.8504 192.016 31.5402C192.404 31.2188 192.703 30.759 192.914 30.1607C193.135 29.5623 193.246 28.8421 193.246 28C193.246 27.1468 193.135 26.4266 192.914 25.8393C192.703 25.241 192.404 24.7867 192.016 24.4765C191.639 24.1551 191.207 23.9945 190.72 23.9945C190.232 23.9945 189.794 24.1551 189.407 24.4765C189.019 24.7867 188.714 25.241 188.492 25.8393C188.282 26.4377 188.177 27.1579 188.177 28C188.177 28.8421 188.282 29.5623 188.492 30.1607C188.714 30.759 189.019 31.2188 189.407 31.5402C189.794 31.8504 190.232 32.0055 190.72 32.0055ZM199.203 33.2687C199.967 33.7562 200.854 34 201.862 34C202.87 34 203.751 33.7562 204.504 33.2687C205.258 32.7812 205.845 32.0886 206.266 31.1911C206.687 30.2936 206.898 29.2299 206.898 28C206.898 26.7479 206.687 25.6787 206.266 24.7922C205.845 23.8947 205.258 23.2078 204.504 22.7313C203.751 22.2438 202.87 22 201.862 22C200.854 22 199.967 22.2438 199.203 22.7313C198.449 23.2078 197.862 23.8947 197.441 24.7922C197.031 25.6898 196.826 26.759 196.826 28C196.826 29.2299 197.031 30.2936 197.441 31.1911C197.862 32.0886 198.449 32.7812 199.203 33.2687ZM203.158 31.5402C202.782 31.8504 202.349 32.0055 201.862 32.0055C201.374 32.0055 200.937 31.8504 200.549 31.5402C200.161 31.2188 199.856 30.759 199.635 30.1607C199.424 29.5623 199.319 28.8421 199.319 28C199.319 27.1579 199.424 26.4377 199.635 25.8393C199.856 25.241 200.161 24.7867 200.549 24.4765C200.937 24.1551 201.374 23.9945 201.862 23.9945C202.349 23.9945 202.782 24.1551 203.158 24.4765C203.546 24.7867 203.845 25.241 204.056 25.8393C204.277 26.4266 204.388 27.1468 204.388 28C204.388 28.8421 204.277 29.5623 204.056 30.1607C203.845 30.759 203.546 31.2188 203.158 31.5402ZM209.115 33.8006L209.115 22.1994L211.525 22.1994L211.525 31.8061L217.309 31.8061L217.309 33.8006L209.115 33.8006ZM221.819 33.4681C222.495 33.8227 223.299 34 224.229 34C225.072 34 225.819 33.856 226.473 33.5679C227.138 33.2687 227.659 32.8643 228.035 32.3546C228.412 31.8338 228.601 31.2299 228.601 30.5429C228.601 29.8781 228.484 29.3352 228.252 28.9141C228.03 28.482 227.731 28.1385 227.354 27.8837C226.988 27.6177 226.584 27.4127 226.141 27.2687C225.709 27.1136 225.271 26.9862 224.828 26.8864C224.385 26.7756 223.975 26.6648 223.598 26.554C223.232 26.4321 222.939 26.277 222.717 26.0886C222.495 25.9003 222.385 25.651 222.385 25.3407C222.385 24.9086 222.545 24.5762 222.867 24.3435C223.199 24.1108 223.614 23.9945 224.113 23.9945C224.457 23.9945 224.772 24.0665 225.06 24.2105C225.36 24.3435 225.603 24.5429 225.792 24.8089C225.991 25.0748 226.096 25.4072 226.108 25.8061L228.534 25.8061C228.512 24.9972 228.296 24.3103 227.886 23.7452C227.476 23.1801 226.939 22.7479 226.274 22.4488C225.62 22.1496 224.9 22 224.113 22C223.26 22 222.517 22.1496 221.886 22.4488C221.254 22.7479 220.761 23.1579 220.407 23.6787C220.063 24.1884 219.891 24.7645 219.891 25.4072C219.891 26.0277 220.002 26.5429 220.224 26.9529C220.445 27.3518 220.739 27.6731 221.105 27.9169C221.481 28.1607 221.891 28.3601 222.335 28.5152C222.778 28.6704 223.216 28.8033 223.648 28.9141C224.091 29.0249 224.495 29.1468 224.861 29.2798C225.238 29.4017 225.537 29.5623 225.758 29.7618C225.98 29.9612 226.091 30.2271 226.091 30.5596C226.091 31.0139 225.919 31.3684 225.576 31.6233C225.243 31.8781 224.794 32.0055 224.229 32.0055C223.531 32.0055 222.999 31.8006 222.634 31.3906C222.268 30.9806 222.085 30.3878 222.085 29.6122L219.709 29.6122C219.709 30.5208 219.891 31.3019 220.257 31.9557C220.623 32.6094 221.144 33.1136 221.819 33.4681ZM243.871 33.8006L244.519 31.3407L248.255 31.3407L248.891 33.8006L251.35 33.8006L248.193 22.1994L244.619 22.1994L241.478 33.8006L243.871 33.8006ZM247.74 29.3463L245.043 29.3463L245.699 26.8532L246.398 23.9446L247.096 26.8532L247.74 29.3463ZM253.085 22.1994L253.085 33.8006L255.379 33.8006L255.379 29.2299L255.18 25.3573L258.986 33.8006L262.044 33.8006L262.044 22.1994L259.75 22.1994L259.75 26.7701L259.916 30.7756L256.144 22.1994L253.085 22.1994ZM264.278 33.8006L264.278 22.1994L268.067 22.1994C268.931 22.1994 269.707 22.338 270.394 22.615C271.081 22.8809 271.668 23.2687 272.156 23.7784C272.643 24.277 273.014 24.8809 273.269 25.59C273.524 26.2992 273.651 27.0914 273.651 27.9668C273.651 28.8532 273.524 29.6565 273.269 30.3767C273.014 31.0859 272.643 31.7008 272.156 32.2216C271.668 32.7313 271.081 33.1247 270.394 33.4017C269.707 33.6676 268.931 33.8006 268.067 33.8006L264.278 33.8006ZM266.687 31.8061L268.067 31.8061C268.721 31.8061 269.275 31.651 269.729 31.3407C270.194 31.0194 270.543 30.5706 270.776 29.9945C271.02 29.4072 271.142 28.7313 271.142 27.9668C271.142 27.1911 271.02 26.5263 270.776 25.9723C270.543 25.4072 270.194 24.9695 269.729 24.6593C269.275 24.349 268.721 24.1939 268.067 24.1939L266.687 24.1939L266.687 31.8061ZM287.11 22.1994L287.11 33.8006L295.304 33.8006L295.304 31.8061L289.52 31.8061L289.52 22.1994L287.11 22.1994ZM300.912 31.8061L300.912 24.1939L298.17 24.1939L298.17 22.1994L300.912 22.1994L303.322 22.1994L306.064 22.1994L306.064 24.1939L303.322 24.1939L303.322 31.8061L306.064 31.8061L306.064 33.8006L303.322 33.8006L300.912 33.8006L298.17 33.8006L298.17 31.8061L300.912 31.8061ZM316.99 28.3158C316.691 28.072 316.326 27.8781 315.894 27.7341C316.259 27.5789 316.575 27.3795 316.841 27.1357C317.107 26.892 317.312 26.6094 317.456 26.2881C317.6 25.9557 317.672 25.5845 317.672 25.1745C317.672 24.2881 317.312 23.5734 316.592 23.0305C315.882 22.4765 314.88 22.1994 313.583 22.1994L309.046 22.1994L309.046 33.8006L313.749 33.8006C314.603 33.8006 315.34 33.6676 315.96 33.4017C316.592 33.1247 317.079 32.7368 317.423 32.2382C317.766 31.7285 317.938 31.1357 317.938 30.4598C317.938 29.9945 317.855 29.5845 317.689 29.2299C317.533 28.8643 317.301 28.5596 316.99 28.3158ZM311.456 24.1939L313.45 24.1939C313.96 24.1939 314.376 24.3158 314.697 24.5596C315.018 24.8033 315.179 25.1302 315.179 25.5402C315.179 25.9501 315.018 26.2881 314.697 26.554C314.387 26.8089 313.971 26.9363 313.45 26.9363L311.456 26.9363L311.456 24.1939ZM313.683 31.8061L311.456 31.8061L311.456 28.9307L313.617 28.9307C314.193 28.9307 314.641 29.0582 314.963 29.313C315.284 29.5679 315.445 29.9224 315.445 30.3767C315.445 30.8089 315.284 31.1579 314.963 31.4238C314.641 31.6787 314.215 31.8061 313.683 31.8061ZM322.581 33.8006L322.581 29.2964L323.775 29.2964C323.914 29.3867 324.048 29.4809 324.177 29.5789C324.698 29.9557 325.13 30.3767 325.473 30.8421C325.817 31.3075 326.083 31.795 326.271 32.3047C326.471 32.8033 326.581 33.3019 326.604 33.8006L329.08 33.8006C329.058 33.2798 328.964 32.7535 328.798 32.2216C328.642 31.6787 328.399 31.1579 328.066 30.6593C327.745 30.1496 327.335 29.6731 326.836 29.2299C326.733 29.1335 326.625 29.0398 326.513 28.9488C327.024 28.7449 327.465 28.484 327.834 28.1662C328.232 27.8116 328.537 27.4238 328.748 27.0028C328.958 26.5706 329.063 26.1274 329.063 25.6731C329.063 24.9418 328.881 24.3213 328.515 23.8116C328.16 23.2909 327.667 22.892 327.036 22.615C326.404 22.338 325.684 22.1994 324.875 22.1994L322.581 22.1994L321.9 22.1994L320.171 22.1994L320.171 33.8006L322.581 33.8006ZM324.626 27.3019L322.581 27.3019L322.581 24.1939L324.875 24.1939C325.196 24.1939 325.484 24.2548 325.739 24.3767C325.994 24.4986 326.194 24.6704 326.338 24.892C326.493 25.1136 326.57 25.374 326.57 25.6731C326.57 25.9945 326.487 26.277 326.321 26.5208C326.155 26.7645 325.928 26.9585 325.64 27.1025C325.352 27.2355 325.014 27.3019 324.626 27.3019ZM333.656 31.3407L333.009 33.8006L330.616 33.8006L333.757 22.1994L337.33 22.1994L340.488 33.8006L338.028 33.8006L337.393 31.3407L333.656 31.3407ZM334.181 29.3463L336.878 29.3463L336.233 26.8532L335.535 23.9446L334.837 26.8532L334.181 29.3463ZM344.866 33.8006L344.866 29.2964L346.06 29.2964C346.199 29.3867 346.333 29.4809 346.461 29.5789C346.982 29.9557 347.414 30.3767 347.758 30.8421C348.101 31.3075 348.367 31.795 348.556 32.3047C348.755 32.8033 348.866 33.3019 348.888 33.8006L351.365 33.8006C351.342 33.2798 351.248 32.7535 351.082 32.2216C350.927 31.6787 350.683 31.1579 350.351 30.6593C350.029 30.1496 349.619 29.6731 349.121 29.2299C349.017 29.1335 348.91 29.0398 348.798 28.9488C349.309 28.7449 349.749 28.484 350.118 28.1662C350.517 27.8116 350.822 27.4238 351.032 27.0028C351.243 26.5706 351.348 26.1274 351.348 25.6731C351.348 24.9418 351.165 24.3213 350.799 23.8116C350.445 23.2909 349.952 22.892 349.32 22.615C348.689 22.338 347.968 22.1994 347.16 22.1994L344.866 22.1994L344.184 22.1994L342.456 22.1994L342.456 33.8006L344.866 33.8006ZM346.91 27.3019L344.866 27.3019L344.866 24.1939L347.16 24.1939C347.481 24.1939 347.769 24.2549 348.024 24.3767C348.279 24.4986 348.478 24.6704 348.622 24.892C348.777 25.1136 348.855 25.374 348.855 25.6731C348.855 25.9945 348.772 26.277 348.606 26.5208C348.439 26.7645 348.212 26.9585 347.924 27.1025C347.636 27.2355 347.298 27.3019 346.91 27.3019ZM356.623 24.1939L356.623 31.8061L353.881 31.8061L353.881 33.8006L356.623 33.8006L359.033 33.8006L361.775 33.8006L361.775 31.8061L359.033 31.8061L359.033 24.1939L361.775 24.1939L361.775 22.1994L359.033 22.1994L356.623 22.1994L353.881 22.1994L353.881 24.1939L356.623 24.1939ZM364.84 33.8006L364.84 22.1994L373.35 22.1994L373.35 24.1939L367.267 24.1939L367.267 26.8033L371.289 26.8033L371.289 28.7978L367.267 28.7978L367.267 31.8061L373.416 31.8061L373.416 33.8006L364.84 33.8006ZM377.811 33.4681C378.487 33.8227 379.29 34 380.221 34C381.063 34 381.811 33.856 382.464 33.5679C383.129 33.2687 383.65 32.8643 384.027 32.3546C384.403 31.8338 384.592 31.2299 384.592 30.5429C384.592 29.8781 384.475 29.3352 384.243 28.9141C384.021 28.482 383.722 28.1385 383.345 27.8837C382.98 27.6177 382.575 27.4127 382.132 27.2687C381.7 27.1136 381.262 26.9862 380.819 26.8864C380.376 26.7756 379.966 26.6648 379.589 26.554C379.223 26.4321 378.93 26.277 378.708 26.0886C378.486 25.9003 378.376 25.651 378.376 25.3407C378.376 24.9086 378.536 24.5762 378.858 24.3435C379.19 24.1108 379.606 23.9945 380.104 23.9945C380.448 23.9945 380.763 24.0665 381.052 24.2105C381.351 24.3435 381.595 24.5429 381.783 24.8089C381.982 25.0748 382.088 25.4072 382.099 25.8061L384.525 25.8061C384.503 24.9972 384.287 24.3103 383.877 23.7452C383.467 23.1801 382.93 22.7479 382.265 22.4488C381.611 22.1496 380.891 22 380.104 22C379.251 22 378.509 22.1496 377.877 22.4488C377.245 22.7479 376.752 23.1579 376.398 23.6787C376.054 24.1884 375.883 24.7645 375.883 25.4072C375.883 26.0277 375.993 26.5429 376.215 26.9529C376.437 27.3518 376.73 27.6731 377.096 27.9169C377.473 28.1607 377.883 28.3601 378.326 28.5152C378.769 28.6704 379.207 28.8033 379.639 28.9141C380.082 29.0249 380.486 29.1468 380.852 29.2798C381.229 29.4017 381.528 29.5623 381.75 29.7618C381.971 29.9612 382.082 30.2271 382.082 30.5596C382.082 31.0139 381.91 31.3684 381.567 31.6233C381.234 31.8781 380.786 32.0055 380.221 32.0055C379.522 32.0055 378.991 31.8006 378.625 31.3906C378.259 30.9806 378.077 30.3878 378.077 29.6122L375.7 29.6122C375.7 30.5208 375.883 31.3019 376.248 31.9557C376.614 32.6094 377.135 33.1136 377.811 33.4681Z" fill="#1D1D1E"/>
<path d="M450.728 29.2964V27.3019H453.452C453.84 27.3019 454.178 27.2355 454.466 27.1025C454.754 26.9584 454.981 26.7645 455.147 26.5208C455.313 26.277 455.396 25.9945 455.396 25.6731C455.396 25.374 455.319 25.1136 455.163 24.892C455.019 24.6704 454.82 24.4986 454.565 24.3767C454.311 24.2548 454.023 24.1939 453.702 24.1939H450.728V22.1994H453.702C454.51 22.1994 455.23 22.338 455.861 22.615C456.493 22.892 456.985 23.2909 457.34 23.8116C457.705 24.3213 457.888 24.9418 457.888 25.6731C457.888 26.1274 457.783 26.5706 457.572 27.0028C457.362 27.4238 457.057 27.8116 456.659 28.1662C456.26 28.5097 455.778 28.7867 455.213 28.9972C454.66 29.1967 454.028 29.2964 453.319 29.2964H450.728ZM449 33.8006V22.1994H451.409V33.8006H449ZM455.429 33.8006C455.407 33.3019 455.296 32.8033 455.097 32.3047C454.909 31.795 454.643 31.3075 454.3 30.8421C453.956 30.3767 453.524 29.9557 453.004 29.5789C452.494 29.1911 451.907 28.8643 451.243 28.5983L453.917 28.0499C454.593 28.3823 455.175 28.7756 455.662 29.2299C456.16 29.6731 456.57 30.1496 456.891 30.6593C457.223 31.1579 457.467 31.6787 457.622 32.2216C457.788 32.7535 457.882 33.2798 457.905 33.8006H455.429Z" fill="white"/>
<path d="M460.237 33.8006V22.1994H468.743V24.1939H462.662V26.8033H466.683V28.7978H462.662V31.8061L468.809 31.8061V33.8006H460.237Z" fill="white"/>
<path d="M472.305 31.3407V29.3463L479 29.3463V31.3407H472.305ZM473.717 22.1994L477.289 22.1994L480.445 33.8006H477.986L476.192 26.8532L475.494 23.9446L474.797 26.8532L472.969 33.8006L470.577 33.8006L473.717 22.1994Z" fill="white"/>
<path d="M482.229 33.8006V22.1994H486.017C486.881 22.1994 487.656 22.338 488.343 22.615C489.029 22.8809 489.616 23.2687 490.104 23.7784C490.591 24.277 490.962 24.8809 491.217 25.59C491.472 26.2992 491.599 27.0914 491.599 27.9668C491.599 28.8532 491.472 29.6565 491.217 30.3767C490.962 31.0859 490.591 31.7008 490.104 32.2216C489.616 32.7313 489.029 33.1247 488.343 33.4017C487.656 33.6676 486.881 33.8006 486.017 33.8006H482.229ZM484.638 31.8061H486.017C486.67 31.8061 487.224 31.651 487.678 31.3407C488.143 31.0194 488.492 30.5706 488.725 29.9945C488.968 29.4072 489.09 28.7313 489.09 27.9668C489.09 27.1911 488.968 26.5263 488.725 25.9723C488.492 25.4072 488.143 24.9695 487.678 24.6593C487.224 24.349 486.67 24.1939 486.017 24.1939H484.638V31.8061Z" fill="white"/>
<path d="M496.539 33.8006V29.1136L492.818 22.1994L495.426 22.1994L496.839 24.8089L497.785 27.0859L498.766 24.7922L500.178 22.1994H502.753L498.948 29.1136V33.8006H496.539Z" fill="white"/>
<path d="M520.16 34C519.229 34 518.426 33.8227 517.751 33.4681C517.075 33.1136 516.555 32.6094 516.189 31.9557C515.824 31.3019 515.641 30.5208 515.641 29.6122H518.017C518.017 30.3878 518.199 30.9806 518.565 31.3906C518.93 31.8006 519.462 32.0055 520.16 32.0055C520.725 32.0055 521.173 31.8781 521.505 31.6233C521.849 31.3684 522.02 31.0139 522.02 30.5596C522.02 30.2271 521.91 29.9612 521.688 29.7618C521.467 29.5623 521.168 29.4017 520.791 29.2798C520.426 29.1468 520.021 29.0249 519.578 28.9141C519.146 28.8033 518.709 28.6704 518.266 28.5152C517.823 28.3601 517.413 28.1607 517.036 27.9169C516.671 27.6731 516.377 27.3518 516.156 26.9529C515.934 26.5429 515.824 26.0277 515.824 25.4072C515.824 24.7645 515.995 24.1884 516.339 23.6787C516.693 23.1579 517.186 22.7479 517.817 22.4488C518.449 22.1496 519.191 22 520.043 22C520.83 22 521.55 22.1496 522.203 22.4488C522.868 22.7479 523.405 23.1801 523.815 23.7452C524.224 24.3102 524.44 24.9972 524.463 25.8061H522.037C522.026 25.4072 521.921 25.0748 521.721 24.8089C521.533 24.5429 521.289 24.3435 520.99 24.2105C520.702 24.0665 520.387 23.9945 520.043 23.9945C519.545 23.9945 519.13 24.1108 518.797 24.3435C518.476 24.5762 518.316 24.9086 518.316 25.3407C518.316 25.651 518.426 25.9003 518.648 26.0886C518.869 26.277 519.163 26.4321 519.528 26.554C519.905 26.6648 520.315 26.7756 520.758 26.8864C521.201 26.9862 521.638 27.1136 522.07 27.2687C522.513 27.4127 522.917 27.6177 523.283 27.8837C523.66 28.1385 523.959 28.482 524.18 28.9141C524.413 29.3352 524.529 29.8781 524.529 30.5429C524.529 31.2299 524.341 31.8338 523.964 32.3546C523.588 32.8643 523.067 33.2687 522.402 33.5679C521.749 33.856 521.001 34 520.16 34Z" fill="white"/>
<path d="M531.214 34C530.206 34 529.32 33.7562 528.556 33.2687C527.803 32.7812 527.216 32.0886 526.795 31.1911C526.385 30.2936 526.18 29.2299 526.18 28C526.18 26.759 526.385 25.6898 526.795 24.7922C527.216 23.8947 527.803 23.2078 528.556 22.7313C529.32 22.2438 530.206 22 531.214 22C532.222 22 533.102 22.2438 533.855 22.7313C534.609 23.2078 535.196 23.8947 535.616 24.7922C536.037 25.6787 536.248 26.7479 536.248 28C536.248 29.2299 536.037 30.2936 535.616 31.1911C535.196 32.0886 534.609 32.7812 533.855 33.2687C533.102 33.7562 532.222 34 531.214 34ZM531.214 32.0055C531.701 32.0055 532.133 31.8504 532.51 31.5402C532.897 31.2188 533.196 30.759 533.407 30.1607C533.628 29.5623 533.739 28.8421 533.739 28C533.739 27.1468 533.628 26.4266 533.407 25.8393C533.196 25.241 532.897 24.7867 532.51 24.4765C532.133 24.1551 531.701 23.9945 531.214 23.9945C530.727 23.9945 530.289 24.1551 529.901 24.4765C529.514 24.7867 529.209 25.241 528.988 25.8393C528.777 26.4377 528.672 27.1579 528.672 28C528.672 28.8421 528.777 29.5623 528.988 30.1607C529.209 30.759 529.514 31.2188 529.901 31.5402C530.289 31.8504 530.727 32.0055 531.214 32.0055Z" fill="white"/>
<path d="M538.464 33.8006V22.1994H540.873V31.8061L546.654 31.8061V33.8006L538.464 33.8006Z" fill="white"/>
<path d="M553.472 34C552.497 34 551.661 33.8227 550.963 33.4681C550.266 33.1025 549.728 32.5928 549.352 31.9391C548.975 31.2853 548.787 30.5263 548.787 29.6621V22.1994L551.212 22.1994V29.6621C551.212 30.1385 551.307 30.5485 551.495 30.892C551.683 31.2355 551.943 31.5069 552.276 31.7064C552.619 31.8947 553.018 31.9889 553.472 31.9889C553.937 31.9889 554.336 31.8947 554.668 31.7064C555.011 31.5069 555.272 31.2355 555.449 30.892C555.637 30.5485 555.731 30.1385 555.731 29.6621V22.1994H558.157V29.6621C558.157 30.5263 557.968 31.2853 557.592 31.9391C557.215 32.5928 556.678 33.1025 555.98 33.4681C555.283 33.8227 554.446 34 553.472 34Z" fill="white"/>
<path d="M563.396 33.8006V24.1939H559.891V22.1994L569.311 22.1994V24.1939L565.805 24.1939V33.8006H563.396Z" fill="white"/>
<path d="M574.534 33.8006V22.1994H576.943V33.8006H574.534ZM571.793 22.1994H579.684V24.1939H571.793V22.1994ZM571.793 31.8061L579.684 31.8061V33.8006L571.793 33.8006V31.8061Z" fill="white"/>
<path d="M586.9 34C585.892 34 585.006 33.7562 584.242 33.2687C583.489 32.7812 582.902 32.0886 582.481 31.1911C582.071 30.2936 581.867 29.2299 581.867 28C581.867 26.759 582.071 25.6898 582.481 24.7922C582.902 23.8947 583.489 23.2078 584.242 22.7313C585.006 22.2438 585.892 22 586.9 22C587.908 22 588.789 22.2438 589.542 22.7313C590.295 23.2078 590.882 23.8947 591.303 24.7922C591.724 25.6787 591.934 26.7479 591.934 28C591.934 29.2299 591.724 30.2936 591.303 31.1911C590.882 32.0886 590.295 32.7812 589.542 33.2687C588.789 33.7562 587.908 34 586.9 34ZM586.9 32.0055C587.388 32.0055 587.82 31.8504 588.196 31.5402C588.584 31.2188 588.883 30.759 589.093 30.1607C589.315 29.5623 589.426 28.8421 589.426 28C589.426 27.1468 589.315 26.4266 589.093 25.8393C588.883 25.241 588.584 24.7867 588.196 24.4765C587.82 24.1551 587.388 23.9945 586.9 23.9945C586.413 23.9945 585.976 24.1551 585.588 24.4765C585.2 24.7867 584.896 25.241 584.674 25.8393C584.464 26.4377 584.359 27.1579 584.359 28C584.359 28.8421 584.464 29.5623 584.674 30.1607C584.896 30.759 585.2 31.2188 585.588 31.5402C585.976 31.8504 586.413 32.0055 586.9 32.0055Z" fill="white"/>
<path d="M593.552 33.8006V22.1994H596.609L600.38 30.7756L600.214 26.7701V22.1994H602.507V33.8006H599.45L595.645 25.3573L595.845 29.2299V33.8006H593.552Z" fill="white"/>
<path d="M609.258 34C608.328 34 607.525 33.8227 606.849 33.4681C606.173 33.1136 605.653 32.6094 605.287 31.9557C604.922 31.3019 604.739 30.5208 604.739 29.6122L607.115 29.6122C607.115 30.3878 607.298 30.9806 607.663 31.3906C608.029 31.8006 608.56 32.0055 609.258 32.0055C609.823 32.0055 610.271 31.8781 610.604 31.6233C610.947 31.3684 611.119 31.0139 611.119 30.5596C611.119 30.2271 611.008 29.9612 610.786 29.7618C610.565 29.5623 610.266 29.4017 609.889 29.2798C609.524 29.1468 609.12 29.0249 608.676 28.9141C608.245 28.8033 607.807 28.6704 607.364 28.5152C606.921 28.3601 606.511 28.1607 606.135 27.9169C605.769 27.6731 605.476 27.3518 605.254 26.9529C605.033 26.5429 604.922 26.0277 604.922 25.4072C604.922 24.7645 605.094 24.1884 605.437 23.6787C605.791 23.1579 606.284 22.7479 606.915 22.4488C607.547 22.1496 608.289 22 609.142 22C609.928 22 610.648 22.1496 611.301 22.4488C611.966 22.7479 612.503 23.1801 612.913 23.7452C613.323 24.3102 613.539 24.9972 613.561 25.8061H611.135C611.124 25.4072 611.019 25.0748 610.82 24.8089C610.631 24.5429 610.388 24.3435 610.089 24.2105C609.801 24.0665 609.485 23.9945 609.142 23.9945C608.643 23.9945 608.228 24.1108 607.896 24.3435C607.574 24.5762 607.414 24.9086 607.414 25.3407C607.414 25.651 607.525 25.9003 607.746 26.0886C607.968 26.277 608.261 26.4321 608.627 26.554C609.003 26.6648 609.413 26.7756 609.856 26.8864C610.299 26.9862 610.737 27.1136 611.168 27.2687C611.611 27.4127 612.016 27.6177 612.381 27.8837C612.758 28.1385 613.057 28.482 613.278 28.9141C613.511 29.3352 613.627 29.8781 613.627 30.5429C613.627 31.2299 613.439 31.8338 613.062 32.3546C612.686 32.8643 612.165 33.2687 611.501 33.5679C610.847 33.856 610.1 34 609.258 34Z" fill="white"/>
<path d="M628.227 31.3407V29.3463H634.922V31.3407H628.227ZM629.639 22.1994H633.21L636.367 33.8006H633.908L632.114 26.8532L631.416 23.9446L630.718 26.8532L628.891 33.8006H626.499L629.639 22.1994Z" fill="white"/>
<path d="M638.101 33.8006V22.1994L641.158 22.1994L644.929 30.7756L644.763 26.7701V22.1994H647.056V33.8006L643.999 33.8006L640.194 25.3573L640.394 29.2299V33.8006H638.101Z" fill="white"/>
<path d="M649.288 33.8006V22.1994H653.076C653.94 22.1994 654.715 22.338 655.402 22.615C656.089 22.8809 656.676 23.2687 657.163 23.7784C657.65 24.277 658.021 24.8809 658.276 25.59C658.531 26.2992 658.658 27.0914 658.658 27.9668C658.658 28.8532 658.531 29.6565 658.276 30.3767C658.021 31.0859 657.65 31.7008 657.163 32.2216C656.676 32.7313 656.089 33.1247 655.402 33.4017C654.715 33.6676 653.94 33.8006 653.076 33.8006H649.288ZM651.697 31.8061H653.076C653.73 31.8061 654.283 31.651 654.737 31.3407C655.203 31.0194 655.551 30.5706 655.784 29.9945C656.028 29.4072 656.15 28.7313 656.15 27.9668C656.15 27.1911 656.028 26.5263 655.784 25.9723C655.551 25.4072 655.203 24.9695 654.737 24.6593C654.283 24.349 653.73 24.1939 653.076 24.1939H651.697V31.8061Z" fill="white"/>
<path d="M676.131 34C675.09 34 674.193 33.7507 673.44 33.2521C672.687 32.7535 672.106 32.0554 671.696 31.1579C671.286 30.2493 671.081 29.1967 671.081 28C671.081 26.7812 671.292 25.723 671.712 24.8255C672.133 23.928 672.726 23.2355 673.49 22.7479C674.265 22.2493 675.173 22 676.215 22C677.034 22 677.787 22.1607 678.474 22.482C679.161 22.8033 679.72 23.2687 680.152 23.8781C680.595 24.4765 680.844 25.2022 680.899 26.0554L678.258 26.0554C678.191 25.4349 677.981 24.9363 677.627 24.5596C677.272 24.1828 676.802 23.9945 676.215 23.9945C675.705 23.9945 675.251 24.1496 674.852 24.4598C674.454 24.7701 674.138 25.2244 673.905 25.8227C673.684 26.4211 673.573 27.1468 673.573 28C673.573 28.8532 673.684 29.5789 673.905 30.1773C674.127 30.7756 674.431 31.2299 674.819 31.5402C675.207 31.8504 675.644 32.0055 676.131 32.0055C676.541 32.0055 676.901 31.9224 677.211 31.7562C677.521 31.5789 677.771 31.3296 677.959 31.0083C678.158 30.687 678.28 30.3047 678.324 29.8615L680.966 29.8615C680.877 30.7036 680.628 31.4349 680.218 32.0554C679.809 32.6759 679.26 33.1579 678.574 33.5014C677.887 33.8338 677.073 34 676.131 34Z" fill="white"/>
<path d="M683.913 31.3407V29.3463H690.608V31.3407H683.913ZM685.325 22.1994H688.897L692.053 33.8006L689.595 33.8006L687.8 26.8532L687.103 23.9446L686.405 26.8532L684.577 33.8006H682.185L685.325 22.1994Z" fill="white"/>
<path d="M698.356 34C697.426 34 696.623 33.8227 695.947 33.4681C695.272 33.1136 694.751 32.6094 694.386 31.9557C694.02 31.3019 693.837 30.5208 693.837 29.6122H696.213C696.213 30.3878 696.396 30.9806 696.761 31.3906C697.127 31.8006 697.658 32.0055 698.356 32.0055C698.921 32.0055 699.37 31.8781 699.702 31.6233C700.045 31.3684 700.217 31.0139 700.217 30.5596C700.217 30.2271 700.106 29.9612 699.885 29.7618C699.663 29.5623 699.364 29.4017 698.988 29.2798C698.622 29.1468 698.218 29.0249 697.775 28.9141C697.343 28.8033 696.905 28.6704 696.462 28.5152C696.019 28.3601 695.609 28.1607 695.233 27.9169C694.867 27.6731 694.574 27.3518 694.352 26.9529C694.131 26.5429 694.02 26.0277 694.02 25.4072C694.02 24.7645 694.192 24.1884 694.535 23.6787C694.89 23.1579 695.382 22.7479 696.014 22.4488C696.645 22.1496 697.387 22 698.24 22C699.026 22 699.746 22.1496 700.4 22.4488C701.064 22.7479 701.601 23.1801 702.011 23.7452C702.421 24.3102 702.637 24.9972 702.659 25.8061H700.233C700.222 25.4072 700.117 25.0748 699.918 24.8089C699.73 24.5429 699.486 24.3435 699.187 24.2105C698.899 24.0665 698.583 23.9945 698.24 23.9945C697.742 23.9945 697.326 24.1108 696.994 24.3435C696.673 24.5762 696.512 24.9086 696.512 25.3407C696.512 25.651 696.623 25.9003 696.844 26.0886C697.066 26.277 697.359 26.4321 697.725 26.554C698.101 26.6648 698.511 26.7756 698.954 26.8864C699.397 26.9862 699.835 27.1136 700.267 27.2687C700.71 27.4127 701.114 27.6177 701.479 27.8837C701.856 28.1385 702.155 28.482 702.377 28.9141C702.609 29.3352 702.725 29.8781 702.725 30.5429C702.725 31.2299 702.537 31.8338 702.161 32.3546C701.784 32.8643 701.263 33.2687 700.599 33.5679C699.946 33.856 699.198 34 698.356 34Z" fill="white"/>
<path d="M705.257 33.8006V22.1994H713.763V24.1939H707.683V26.8033H711.703V28.7978H707.683V31.8061H713.829V33.8006H705.257Z" fill="white"/>
<path d="M720.631 34C719.7 34 718.897 33.8227 718.222 33.4681C717.546 33.1136 717.026 32.6094 716.66 31.9557C716.295 31.3019 716.112 30.5208 716.112 29.6122L718.488 29.6122C718.488 30.3878 718.67 30.9806 719.036 31.3906C719.401 31.8006 719.933 32.0055 720.631 32.0055C721.196 32.0055 721.644 31.8781 721.976 31.6233C722.32 31.3684 722.491 31.0139 722.491 30.5596C722.491 30.2271 722.381 29.9612 722.159 29.7618C721.938 29.5623 721.639 29.4017 721.262 29.2798C720.897 29.1468 720.492 29.0249 720.049 28.9141C719.617 28.8033 719.18 28.6704 718.737 28.5152C718.294 28.3601 717.884 28.1607 717.507 27.9169C717.142 27.6731 716.849 27.3518 716.627 26.9529C716.405 26.5429 716.295 26.0277 716.295 25.4072C716.295 24.7645 716.466 24.1884 716.81 23.6787C717.164 23.1579 717.657 22.7479 718.288 22.4488C718.92 22.1496 719.662 22 720.514 22C721.301 22 722.021 22.1496 722.674 22.4488C723.339 22.7479 723.876 23.1801 724.286 23.7452C724.695 24.3102 724.911 24.9972 724.934 25.8061H722.508C722.497 25.4072 722.392 25.0748 722.192 24.8089C722.004 24.5429 721.76 24.3435 721.461 24.2105C721.173 24.0665 720.858 23.9945 720.514 23.9945C720.016 23.9945 719.601 24.1108 719.268 24.3435C718.947 24.5762 718.787 24.9086 718.787 25.3407C718.787 25.651 718.897 25.9003 719.119 26.0886C719.34 26.277 719.634 26.4321 719.999 26.554C720.376 26.6648 720.786 26.7756 721.229 26.8864C721.672 26.9862 722.109 27.1136 722.541 27.2687C722.984 27.4127 723.389 27.6177 723.754 27.8837C724.131 28.1385 724.43 28.482 724.651 28.9141C724.884 29.3352 725 29.8781 725 30.5429C725 31.2299 724.812 31.8338 724.435 32.3546C724.059 32.8643 723.538 33.2687 722.874 33.5679C722.22 33.856 721.472 34 720.631 34Z" fill="white"/>
<path d="M772.35 12.471L770.191 46.9147L1082.56 46.4966L1084.12 9.16406L772.35 12.471Z" fill="url(#paint3_radial_2116_4425)" stroke="black"/>
<path fill-rule="evenodd" clip-rule="evenodd" d="M1090 4L765 4V52L1090 52V4ZM804.58 34C803.572 34 802.685 33.7562 801.921 33.2687C801.167 32.7812 800.58 32.0886 800.159 31.1911C799.749 30.2936 799.544 29.2299 799.544 28C799.544 26.759 799.749 25.6898 800.159 24.7922C800.58 23.8947 801.167 23.2078 801.921 22.7313C802.685 22.2438 803.572 22 804.58 22C805.588 22 806.469 22.2438 807.223 22.7313C807.976 23.2078 808.563 23.8947 808.984 24.7922C809.405 25.6787 809.616 26.7479 809.616 28C809.616 29.2299 809.405 30.2936 808.984 31.1911C808.563 32.0886 807.976 32.7812 807.223 33.2687C806.469 33.7562 805.588 34 804.58 34ZM804.58 32.0055C805.067 32.0055 805.5 31.8504 805.876 31.5402C806.264 31.2188 806.563 30.759 806.774 30.1607C806.995 29.5623 807.106 28.8421 807.106 28C807.106 27.1468 806.995 26.4266 806.774 25.8393C806.563 25.241 806.264 24.7867 805.876 24.4765C805.5 24.1551 805.067 23.9945 804.58 23.9945C804.092 23.9945 803.655 24.1551 803.267 24.4765C802.879 24.7867 802.574 25.241 802.353 25.8393C802.142 26.4377 802.037 27.1579 802.037 28C802.037 28.8421 802.142 29.5623 802.353 30.1607C802.574 30.759 802.879 31.2188 803.267 31.5402C803.655 31.8504 804.092 32.0055 804.58 32.0055ZM789 33.8006V22.1994L792.789 22.1994C793.654 22.1994 794.429 22.3379 795.116 22.615C795.803 22.8809 796.391 23.2687 796.878 23.7784C797.366 24.277 797.737 24.8809 797.992 25.59C798.247 26.2992 798.374 27.0914 798.374 27.9668C798.374 28.8532 798.247 29.6565 797.992 30.3767C797.737 31.0859 797.366 31.7008 796.878 32.2216C796.391 32.7313 795.803 33.1247 795.116 33.4017C794.429 33.6676 793.654 33.8006 792.789 33.8006L789 33.8006ZM791.41 31.8061L792.789 31.8061C793.443 31.8061 793.997 31.651 794.452 31.3407C794.917 31.0194 795.266 30.5706 795.499 29.9945C795.742 29.4072 795.864 28.7313 795.864 27.9668C795.864 27.1911 795.742 26.5263 795.499 25.9723C795.266 25.4072 794.917 24.9695 794.452 24.6593C793.997 24.349 793.443 24.1939 792.789 24.1939L791.41 24.1939V31.8061ZM813.163 33.2521C813.916 33.7507 814.814 34 815.855 34C816.797 34 817.611 33.8338 818.298 33.5014C818.985 33.1579 819.534 32.6759 819.944 32.0554C820.354 31.4349 820.603 30.7036 820.692 29.8615H818.049C818.005 30.3047 817.883 30.687 817.683 31.0083C817.495 31.3296 817.246 31.5789 816.935 31.7562C816.625 31.9224 816.265 32.0055 815.855 32.0055C815.368 32.0055 814.93 31.8504 814.542 31.5402C814.154 31.2299 813.85 30.7756 813.628 30.1773C813.406 29.5789 813.296 28.8532 813.296 28C813.296 27.1468 813.406 26.4211 813.628 25.8227C813.861 25.2244 814.176 24.7701 814.575 24.4598C814.974 24.1496 815.428 23.9945 815.938 23.9945C816.525 23.9945 816.996 24.1828 817.351 24.5596C817.706 24.9363 817.916 25.4349 817.983 26.0554H820.625C820.57 25.2022 820.32 24.4765 819.877 23.8781C819.445 23.2687 818.886 22.8033 818.199 22.482C817.512 22.1607 816.758 22 815.938 22C814.897 22 813.988 22.2493 813.212 22.7479C812.448 23.2355 811.855 23.928 811.434 24.8255C811.013 25.723 810.802 26.7812 810.802 28C810.802 29.1967 811.007 30.2493 811.417 31.1579C811.827 32.0554 812.409 32.7535 813.163 33.2521ZM826.848 34C825.873 34 825.036 33.8227 824.338 33.4681C823.64 33.1025 823.103 32.5928 822.726 31.9391C822.349 31.2853 822.161 30.5263 822.161 29.6621V22.1994H824.587V29.6621C824.587 30.1385 824.682 30.5485 824.87 30.892C825.058 31.2355 825.319 31.5069 825.651 31.7064C825.995 31.8947 826.393 31.9889 826.848 31.9889C827.313 31.9889 827.712 31.8947 828.044 31.7064C828.388 31.5069 828.648 31.2355 828.826 30.892C829.014 30.5485 829.108 30.1385 829.108 29.6621V22.1994H831.535V29.6621C831.535 30.5263 831.346 31.2853 830.97 31.9391C830.593 32.5928 830.055 33.1025 829.357 33.4681C828.659 33.8227 827.823 34 826.848 34ZM833.718 22.1994L832.904 33.8006H835.198L835.397 27.7008L835.43 24.626L835.896 27.7008L837.026 33.8006H838.937L840.051 27.7008L840.533 24.6593L840.566 27.7008L840.749 33.8006H843.109L842.278 22.1994H839.336L838.356 27.9003L838.04 30.3435L837.724 27.9003L836.727 22.1994H833.718ZM844.994 33.8006V22.1994L853.503 22.1994V24.1939H847.42V26.8033H851.442V28.7978H847.42V31.8061H853.57V33.8006H844.994ZM855.803 22.1994V33.8006H858.097V29.2299L857.898 25.3573L861.704 33.8006H864.762V22.1994H862.468V26.7701L862.635 30.7756L858.862 22.1994H855.803ZM870.203 33.8006V24.1939H866.696V22.1994H876.12V24.1939H872.613V33.8006H870.203ZM880.663 31.3407L880.016 33.8006H877.623L880.764 22.1994L884.337 22.1994L887.495 33.8006H885.035L884.4 31.3407L880.663 31.3407ZM881.188 29.3463L883.884 29.3463L883.24 26.8532L882.542 23.9446L881.844 26.8532L881.188 29.3463ZM892.488 33.8006V24.1939H888.981V22.1994H898.405V24.1939H894.898V33.8006H892.488ZM903.63 24.1939V31.8061L900.888 31.8061V33.8006H903.63H906.04H908.782V31.8061H906.04V24.1939H908.782V22.1994H906.04H903.63L900.888 22.1994V24.1939L903.63 24.1939ZM916.002 34C914.994 34 914.107 33.7562 913.343 33.2687C912.589 32.7812 912.002 32.0886 911.581 31.1911C911.171 30.2936 910.966 29.2299 910.966 28C910.966 26.759 911.171 25.6898 911.581 24.7922C912.002 23.8947 912.589 23.2078 913.343 22.7313C914.107 22.2438 914.994 22 916.002 22C917.01 22 917.891 22.2438 918.645 22.7313C919.398 23.2078 919.986 23.8947 920.407 24.7922C920.828 25.6787 921.038 26.7479 921.038 28C921.038 29.2299 920.828 30.2936 920.407 31.1911C919.986 32.0886 919.398 32.7812 918.645 33.2687C917.891 33.7562 917.01 34 916.002 34ZM916.002 32.0055C916.49 32.0055 916.922 31.8504 917.299 31.5402C917.686 31.2188 917.986 30.759 918.196 30.1607C918.418 29.5623 918.528 28.8421 918.528 28C918.528 27.1468 918.418 26.4266 918.196 25.8393C917.986 25.241 917.686 24.7867 917.299 24.4765C916.922 24.1551 916.49 23.9945 916.002 23.9945C915.515 23.9945 915.077 24.1551 914.689 24.4765C914.301 24.7867 913.997 25.241 913.775 25.8393C913.564 26.4377 913.459 27.1579 913.459 28C913.459 28.8421 913.564 29.5623 913.775 30.1607C913.997 30.759 914.301 31.2188 914.689 31.5402C915.077 31.8504 915.515 32.0055 916.002 32.0055ZM922.657 22.1994V33.8006H924.95V29.2299L924.751 25.3573L928.557 33.8006H931.615V22.1994H929.322V26.7701L929.488 30.7756L925.715 22.1994H922.657ZM946.869 33.8006L947.517 31.3407H951.253L951.889 33.8006H954.348L951.191 22.1994H947.617L944.476 33.8006H946.869ZM950.738 29.3463H948.041L948.698 26.8532L949.396 23.9446L950.094 26.8532L950.738 29.3463ZM956.084 22.1994V33.8006L958.377 33.8006V29.2299L958.178 25.3573L961.984 33.8006H965.042V22.1994H962.748V26.7701L962.915 30.7756L959.142 22.1994L956.084 22.1994ZM967.276 33.8006V22.1994H971.065C971.929 22.1994 972.705 22.3379 973.392 22.615C974.079 22.8809 974.666 23.2687 975.154 23.7784C975.641 24.277 976.012 24.8809 976.267 25.59C976.522 26.2992 976.65 27.0914 976.65 27.9668C976.65 28.8532 976.522 29.6565 976.267 30.3767C976.012 31.0859 975.641 31.7008 975.154 32.2216C974.666 32.7313 974.079 33.1247 973.392 33.4017C972.705 33.6676 971.929 33.8006 971.065 33.8006H967.276ZM969.686 31.8061H971.065C971.719 31.8061 972.273 31.651 972.727 31.3407C973.193 31.0194 973.542 30.5706 973.774 29.9945C974.018 29.4072 974.14 28.7313 974.14 27.9668C974.14 27.1911 974.018 26.5263 973.774 25.9723C973.542 25.4072 973.193 24.9695 972.727 24.6593C972.273 24.349 971.719 24.1939 971.065 24.1939H969.686V31.8061ZM991.671 33.4681C992.347 33.8227 993.15 34 994.081 34C994.923 34 995.671 33.856 996.325 33.5679C996.989 33.2687 997.51 32.8643 997.887 32.3546C998.264 31.8338 998.452 31.2299 998.452 30.5429C998.452 29.8781 998.336 29.3352 998.103 28.9141C997.881 28.482 997.582 28.1385 997.206 27.8837C996.84 27.6177 996.435 27.4127 995.992 27.2687C995.56 27.1136 995.122 26.9862 994.679 26.8864C994.236 26.7756 993.826 26.6648 993.449 26.554C993.084 26.4321 992.79 26.277 992.568 26.0886C992.347 25.9003 992.236 25.651 992.236 25.3407C992.236 24.9086 992.397 24.5762 992.718 24.3435C993.05 24.1108 993.466 23.9945 993.965 23.9945C994.308 23.9945 994.624 24.0665 994.912 24.2105C995.211 24.3435 995.455 24.5429 995.643 24.8089C995.843 25.0748 995.948 25.4072 995.959 25.8061H998.386C998.363 24.9972 998.147 24.3102 997.737 23.7452C997.327 23.1801 996.79 22.7479 996.125 22.4488C995.471 22.1496 994.751 22 993.965 22C993.111 22 992.369 22.1496 991.737 22.4488C991.106 22.7479 990.613 23.1579 990.258 23.6787C989.915 24.1884 989.743 24.7645 989.743 25.4072C989.743 26.0277 989.854 26.5429 990.075 26.9529C990.297 27.3518 990.591 27.6731 990.956 27.9169C991.333 28.1607 991.743 28.3601 992.186 28.5152C992.629 28.6704 993.067 28.8033 993.499 28.9141C993.942 29.0249 994.347 29.1468 994.712 29.2798C995.089 29.4017 995.388 29.5623 995.61 29.7618C995.832 29.9612 995.942 30.2271 995.942 30.5596C995.942 31.0139 995.771 31.3684 995.427 31.6233C995.095 31.8781 994.646 32.0055 994.081 32.0055C993.383 32.0055 992.851 31.8006 992.485 31.3906C992.12 30.9806 991.937 30.3878 991.937 29.6122H989.56C989.56 30.5208 989.743 31.3019 990.109 31.9557C990.474 32.6094 990.995 33.1136 991.671 33.4681ZM1005.12 34C1004.15 34 1003.31 33.8227 1002.61 33.4681C1001.92 33.1025 1001.38 32.5928 1001 31.9391C1000.62 31.2853 1000.44 30.5263 1000.44 29.6621V22.1994H1002.86V29.6621C1002.86 30.1385 1002.96 30.5485 1003.15 30.892C1003.33 31.2355 1003.59 31.5069 1003.93 31.7064C1004.27 31.8947 1004.67 31.9889 1005.12 31.9889C1005.59 31.9889 1005.99 31.8947 1006.32 31.7064C1006.66 31.5069 1006.92 31.2355 1007.1 30.892C1007.29 30.5485 1007.38 30.1385 1007.38 29.6621V22.1994H1009.81V29.6621C1009.81 30.5263 1009.62 31.2853 1009.25 31.9391C1008.87 32.5928 1008.33 33.1025 1007.63 33.4681C1006.93 33.8227 1006.1 34 1005.12 34ZM1014.39 29.9612V33.8006H1011.98V22.1994H1013.71H1014.39H1016.55C1017.43 22.1994 1018.21 22.3601 1018.88 22.6814C1019.54 22.9917 1020.06 23.4349 1020.42 24.0111C1020.79 24.5873 1020.97 25.2632 1020.97 26.0388C1020.97 26.8255 1020.79 27.5125 1020.42 28.0997C1020.06 28.687 1019.53 29.1468 1018.86 29.4792C1018.19 29.8006 1017.41 29.9612 1016.5 29.9612H1014.39ZM1014.39 27.9668H1016.48C1017.08 27.9668 1017.56 27.7895 1017.93 27.4349C1018.29 27.0803 1018.48 26.615 1018.48 26.0388C1018.48 25.4848 1018.3 25.0416 1017.94 24.7091C1017.59 24.3657 1017.12 24.1939 1016.53 24.1939H1014.39V27.9668ZM1025.53 33.8006V29.9612H1027.64C1028.55 29.9612 1029.34 29.8006 1030 29.4792C1030.68 29.1468 1031.2 28.687 1031.56 28.0997C1031.93 27.5125 1032.11 26.8255 1032.11 26.0388C1032.11 25.2632 1031.93 24.5873 1031.56 24.0111C1031.2 23.4349 1030.68 22.9917 1030.02 22.6814C1029.35 22.3601 1028.58 22.1994 1027.69 22.1994H1025.53H1024.85H1023.12V33.8006H1025.53ZM1027.62 27.9668H1025.53V24.1939H1027.67C1028.26 24.1939 1028.73 24.3657 1029.09 24.7091C1029.44 25.0416 1029.62 25.4848 1029.62 26.0388C1029.62 26.615 1029.44 27.0803 1029.07 27.4349C1028.7 27.7895 1028.22 27.9668 1027.62 27.9668ZM1035.91 33.2687C1036.67 33.7562 1037.56 34 1038.57 34C1039.57 34 1040.46 33.7562 1041.21 33.2687C1041.96 32.7812 1042.55 32.0886 1042.97 31.1911C1043.39 30.2936 1043.6 29.2299 1043.6 28C1043.6 26.7479 1043.39 25.6787 1042.97 24.7922C1042.55 23.8947 1041.96 23.2078 1041.21 22.7313C1040.46 22.2438 1039.57 22 1038.57 22C1037.56 22 1036.67 22.2438 1035.91 22.7313C1035.15 23.2078 1034.57 23.8947 1034.15 24.7922C1033.74 25.6898 1033.53 26.759 1033.53 28C1033.53 29.2299 1033.74 30.2936 1034.15 31.1911C1034.57 32.0886 1035.15 32.7812 1035.91 33.2687ZM1039.86 31.5402C1039.49 31.8504 1039.05 32.0055 1038.57 32.0055C1038.08 32.0055 1037.64 31.8504 1037.25 31.5402C1036.87 31.2188 1036.56 30.759 1036.34 30.1607C1036.13 29.5623 1036.02 28.8421 1036.02 28C1036.02 27.1579 1036.13 26.4377 1036.34 25.8393C1036.56 25.241 1036.87 24.7867 1037.25 24.4765C1037.64 24.1551 1038.08 23.9945 1038.57 23.9945C1039.05 23.9945 1039.49 24.1551 1039.86 24.4765C1040.25 24.7867 1040.55 25.241 1040.76 25.8393C1040.98 26.4266 1041.09 27.1468 1041.09 28C1041.09 28.8421 1040.98 29.5623 1040.76 30.1607C1040.55 30.759 1040.25 31.2188 1039.86 31.5402ZM1047.86 33.8006V29.2964L1049.06 29.2964C1049.2 29.3867 1049.33 29.4809 1049.46 29.5789C1049.98 29.9557 1050.41 30.3767 1050.76 30.8421C1051.1 31.3075 1051.37 31.795 1051.55 32.3047C1051.75 32.8033 1051.86 33.3019 1051.89 33.8006H1054.36C1054.34 33.2798 1054.25 32.7535 1054.08 32.2216C1053.92 31.6787 1053.68 31.1579 1053.35 30.6593C1053.03 30.1496 1052.62 29.6731 1052.12 29.2299C1052.02 29.1335 1051.91 29.0398 1051.8 28.9488C1052.31 28.7449 1052.75 28.484 1053.12 28.1662C1053.51 27.8116 1053.82 27.4238 1054.03 27.0028C1054.24 26.5706 1054.35 26.1274 1054.35 25.6731C1054.35 24.9418 1054.16 24.3213 1053.8 23.8116C1053.44 23.2909 1052.95 22.892 1052.32 22.615C1051.69 22.3379 1050.97 22.1994 1050.16 22.1994L1047.86 22.1994H1047.18H1045.45V33.8006H1047.86ZM1049.91 27.3019L1047.86 27.3019V24.1939L1050.16 24.1939C1050.48 24.1939 1050.77 24.2548 1051.02 24.3767C1051.28 24.4986 1051.48 24.6704 1051.62 24.892C1051.78 25.1136 1051.85 25.374 1051.85 25.6731C1051.85 25.9945 1051.77 26.277 1051.6 26.5208C1051.44 26.7645 1051.21 26.9585 1050.92 27.1025C1050.63 27.2355 1050.3 27.3019 1049.91 27.3019ZM1059.62 24.1939V33.8006H1062.03V24.1939H1065.54V22.1994H1056.11V24.1939H1059.62Z" fill="#1D1D1E"/>
<defs>
<linearGradient id="paint0_linear_2116_4425" x1="31.769" y1="-2.22632" x2="181.461" y2="614.939" gradientUnits="userSpaceOnUse">
<stop stop-color="#14FFF1"/>
<stop offset="0.307292" stop-color="#9281FF"/>
<stop offset="0.5625" stop-color="#FF008A"/>
<stop offset="0.869792" stop-color="#FFD873"/>
</linearGradient>
<radialGradient id="paint1_radial_2116_4425" cx="0" cy="0" r="1" gradientUnits="userSpaceOnUse" gradientTransform="translate(1494.76 9.17969) rotate(9.24207) scale(254.026 200.236)">
<stop offset="0.0885417" stop-color="#81FFD1"/>
<stop offset="1" stop-color="#3FAEFF"/>
</radialGradient>
<linearGradient id="paint2_linear_2116_4425" x1="31.7689" y1="-2.22631" x2="181.461" y2="614.939" gradientUnits="userSpaceOnUse">
<stop stop-color="#14FFF1"/>
<stop offset="0.307292" stop-color="#9281FF"/>
<stop offset="0.5625" stop-color="#FF008A"/>
<stop offset="0.869792" stop-color="#FFD873"/>
</linearGradient>
<radialGradient id="paint3_radial_2116_4425" cx="0" cy="0" r="1" gradientUnits="userSpaceOnUse" gradientTransform="translate(770.191 9.16406) rotate(9.24207) scale(254.026 200.236)">
<stop offset="0.0885417" stop-color="#81FFD1"/>
<stop offset="1" stop-color="#3FAEFF"/>
</radialGradient>
</defs>
</svg>
